<?xml version="1.0" encoding="UTF-8"?>
<svg version="1.1" xmlns="http://www.w3.org/2000/svg" width="350" height="622">
<path d="M0 0 C3.51433767 2.01749015 5.48256292 3.1544744 6.5859375 7.08984375 C6.87352167 11.0954804 6.35635664 14.18932108 3.9375 17.4375 C0.24589742 21.19778356 -4.20080593 23.95805879 -8.60668945 26.80078125 C-14.30575307 30.48089408 -19.79219734 34.40935737 -25.25 38.4375 C-26.07201904 39.04086182 -26.89403809 39.64422363 -27.7409668 40.26586914 C-31.83600375 43.21120791 -31.83600375 43.21120791 -35.51000977 46.63769531 C-38.14511722 49.04698576 -41.58209796 48.98484478 -45 49 C-48.33203125 48.35546875 -48.33203125 48.35546875 -51.8125 47.1875 C-52.47209717 46.96956787 -53.13169434 46.75163574 -53.8112793 46.52709961 C-60.70264042 44.2033311 -67.49962441 41.60459654 -74.3125 39.0625 C-107.68049382 26.61817138 -140.17743669 18.40096498 -174.625 33.1875 C-191.39203002 40.93765094 -206.08417616 53.79566207 -215 70 C-215.79857422 71.38251953 -215.79857422 71.38251953 -216.61328125 72.79296875 C-222.23837111 83.13587592 -225.54010938 95.20840459 -226 107 C-226.06316406 108.22847656 -226.12632812 109.45695312 -226.19140625 110.72265625 C-226.97704069 132.50430749 -219.78297099 153.76513007 -205 170 C-204.2575 171.010625 -203.515 172.02125 -202.75 173.0625 C-188.38278901 189.89537097 -163.42165446 197.89691385 -142.1875 199.625 C-139.79223936 199.76053161 -137.39635886 199.88551597 -135 200 C-133.86433594 200.07734375 -132.72867188 200.1546875 -131.55859375 200.234375 C-121.85268276 200.63188671 -113.95899827 198.40707667 -105 195 C-104.071875 194.65066406 -103.14375 194.30132812 -102.1875 193.94140625 C-88.09193115 187.77459488 -79.16414559 175.60984401 -73.6953125 161.67578125 C-66.79383503 140.79503371 -65.96648349 115.09771656 -76 95 C-84.46934834 81.65733753 -98.38907302 74.042717 -113.4375 70.125 C-128.3532089 67.1311017 -142.88416659 68.93326498 -155.7578125 77.375 C-165.91990984 84.73986497 -173.1271215 93.5239602 -176 106 C-177.3569853 118.14363374 -174.69177107 128.08720727 -167.62890625 138 C-161.15382339 145.95022165 -151.72960867 151.28965242 -141.484375 152.37109375 C-133.69313885 152.50964084 -126.06437469 152.51858097 -120 147 C-115.62446853 138.94705557 -115.64630836 129.44018798 -117.83203125 120.65625 C-119.04515012 117.27587382 -120.39286507 114.09326015 -122.13671875 110.953125 C-123.63284909 107.56821473 -123.07730426 104.46580119 -122 101 C-119.9375 98.4375 -119.9375 98.4375 -117 97 C-111.4088813 96.62725875 -108.62444298 97.90041532 -104.3125 101.4375 C-96.33695174 109.19303314 -93.7383547 118.0697134 -93 129 C-92.92106964 136.46878524 -94.37051634 142.48554214 -98 149 C-98.4228125 149.763125 -98.845625 150.52625 -99.28125 151.3125 C-105.67967715 161.83435797 -114.55365652 166.25764505 -126 170 C-126.71027344 170.2475 -127.42054688 170.495 -128.15234375 170.75 C-140.43415651 174.48907196 -153.91227564 171.9114923 -165 166 C-168.15895695 164.19488175 -171.22523395 162.3636896 -174 160 C-174 159.34 -174 158.68 -174 158 C-174.58910156 157.76152344 -175.17820312 157.52304687 -175.78515625 157.27734375 C-186.18464209 151.27975668 -190.88547026 133.7762729 -194 123 C-197.37218023 107.26315894 -193.90448981 93.59072358 -186 80 C-176.38335393 65.27070666 -160.81702962 57.1813598 -144.0625 53.125 C-142.04689095 52.72286503 -140.02623895 52.34459846 -138 52 C-137.24847656 51.86980469 -136.49695313 51.73960937 -135.72265625 51.60546875 C-116.63455933 48.93953343 -96.42688705 51.55220492 -80.375 62.6875 C-64.55337326 74.91226771 -53.82339321 91.03603718 -50.6875 111.0625 C-47.52848204 140.21572292 -52.21699036 169.97477644 -70.1875 193.9140625 C-84.28727181 208.99874484 -108.72325924 217.49641858 -129.11211491 218.47673678 C-132.62814736 218.57360855 -136.14106462 218.58315039 -139.65820312 218.57763672 C-141.24216009 218.58968892 -142.82610496 218.60342877 -144.41003418 218.61869812 C-148.65333949 218.6546644 -152.89638616 218.66668216 -157.13982582 218.67336798 C-161.60659765 218.68405459 -166.0732307 218.71555867 -170.53991699 218.74417114 C-178.02724782 218.78906644 -185.51451645 218.81891584 -193.00195312 218.83886719 C-201.63928842 218.86200264 -210.2763167 218.90608449 -218.9134984 218.96193302 C-227.26048706 219.0156828 -235.60749001 219.05768222 -243.95457458 219.09332657 C-247.49184209 219.10845468 -251.02906468 219.12709878 -254.56629944 219.14852524 C-258.72953518 219.17299513 -262.8926825 219.1869596 -267.0559845 219.19298744 C-268.57771057 219.19675282 -270.09943288 219.2039259 -271.62112427 219.21486855 C-291.42155306 219.3514034 -291.42155306 219.3514034 -297.5 214.5 C-300.4633733 211.5366267 -300.90018999 210.81575492 -301.40625 206.6796875 C-301.31425528 200.29467926 -298.16604702 194.79327714 -295.5 189.125 C-294.94339814 187.9133704 -294.38831705 186.7010411 -293.8347168 185.48803711 C-292.73564028 183.08393914 -291.62867434 180.68405 -290.51708984 178.28564453 C-288.56826941 174.06497742 -286.6852342 169.8173016 -284.8125 165.5625 C-282.92749639 161.31037146 -281.03228974 157.06325623 -279.109375 152.828125 C-275.35996044 144.56074825 -271.67323502 136.26977864 -268.0703125 127.9375 C-239.94362184 62.9132187 -239.94362184 62.9132187 -224 44 C-223.56961426 43.48453613 -223.13922852 42.96907227 -222.69580078 42.43798828 C-205.8874372 22.53843139 -181.24958203 8.18319114 -155.09375 5.2109375 C-122.34699113 2.97820394 -88.69925845 11.02547618 -59.0546875 24.6171875 C-54.32052397 26.76027431 -50.18567235 27.75309087 -45 27 C-42.45887776 25.62245968 -40.53163116 24.39153237 -38.3125 22.625 C-37.7158252 22.17600342 -37.11915039 21.72700684 -36.50439453 21.2644043 C-34.65262041 19.86349055 -32.82400004 18.43683719 -31 17 C-8.23488805 -0.86505645 -8.23488805 -0.86505645 0 0 Z M-244 128 C-251.15942604 142.517868 -258.03773261 157.05942826 -264.22875977 172.02172852 C-267.20781625 179.21042993 -270.41181696 186.21623823 -273.953125 193.14453125 C-275.12726323 196.34712471 -275.21660504 197.83129688 -274 201 C-270.38038388 203.41307741 -267.76926629 203.26941215 -263.59106445 203.22705078 C-262.83960144 203.22734283 -262.08813843 203.22763489 -261.31390381 203.22793579 C-258.83024547 203.22654253 -256.34688718 203.21098166 -253.86328125 203.1953125 C-252.14121159 203.19158235 -250.4191398 203.18873539 -248.69706726 203.18673706 C-244.16456238 203.17910073 -239.63218568 203.15945225 -235.09973145 203.1373291 C-230.47470839 203.11687067 -225.84966463 203.10773535 -221.22460938 203.09765625 C-212.14968327 203.07620635 -203.07485229 203.0420704 -194 203 C-196.60894888 201.02599931 -199.23785414 199.18999785 -202 197.4375 C-221.01703945 184.70734365 -235.6238305 165.6665676 -240.44873047 142.88085938 C-241.40947146 137.9375419 -242.22993971 132.97622295 -243 128 C-243.33 128 -243.66 128 -244 128 Z " fill="#FC881A" transform="translate(318,198)"/>
<path d="M0 0 C0.99 0.99 0.99 0.99 2 2 C-2.35834901 1.48725306 -5.95893419 0.65787315 -10 -1 C-11.9924325 -1.37593066 -13.9918674 -1.71979545 -16 -2 C-16 -2.66 -16 -3.32 -16 -4 C-17.175625 -4.103125 -18.35125 -4.20625 -19.5625 -4.3125 C-36.31890369 -6.15945184 -36.31890369 -6.15945184 -42 -9 C-45.23136442 -9.50599209 -48.4937246 -9.76344864 -51.75 -10.0625 C-52.71760254 -10.15192871 -53.68520508 -10.24135742 -54.68212891 -10.33349609 C-65.12163114 -11.21705867 -75.53230038 -11.19888935 -86 -11 C-86 -10.34 -86 -9.68 -86 -9 C-87.093125 -8.896875 -88.18625 -8.79375 -89.3125 -8.6875 C-93.048881 -7.99088659 -93.66677647 -7.68320706 -96 -5 C-96.99 -5 -97.98 -5 -99 -5 C-99 -5.66 -99 -6.32 -99 -7 C-102.34224041 -5.68822297 -105.67377132 -4.3518611 -109 -3 C-109.79921875 -2.67644531 -110.5984375 -2.35289062 -111.421875 -2.01953125 C-119.9765583 1.47121797 -119.9765583 1.47121797 -126 8 C-127.051875 8.12375 -127.051875 8.12375 -128.125 8.25 C-134.28904586 9.85801196 -137.89817383 14.60440023 -141.1875 19.8125 C-141.63480469 20.58207031 -142.08210938 21.35164063 -142.54296875 22.14453125 C-144 24 -144 24 -145.8515625 24.40234375 C-149.28347941 25.35704063 -151.02421904 28.08163582 -153.1875 30.75 C-153.86329102 31.53890625 -153.86329102 31.53890625 -154.55273438 32.34375 C-157.20357768 35.55496648 -158.36118203 37.92841292 -159 42 C-160.66666667 43.66666667 -162.33333333 45.33333333 -164 47 C-164.88316701 49.8533088 -165 52.01148506 -165 55 C-165.61488281 55.08636719 -166.22976562 55.17273438 -166.86328125 55.26171875 C-169.11116546 55.80888585 -169.11116546 55.80888585 -170.23046875 57.70703125 C-170.54628906 58.40183594 -170.86210937 59.09664063 -171.1875 59.8125 C-171.67283203 60.84310547 -171.67283203 60.84310547 -172.16796875 61.89453125 C-173.04346664 63.96331296 -173.04346664 63.96331296 -173.4921875 66.07421875 C-174.29689955 69.12593445 -176.22562027 71.41908403 -178 74 C-179.45320539 76.60047281 -180.60364236 79.02731767 -181 82 C-180.01 82.99 -180.01 82.99 -179 84 C-179.39832031 84.42410156 -179.79664063 84.84820312 -180.20703125 85.28515625 C-183.84761383 89.3154849 -186.30512799 92.81568562 -188 98 C-187.67 98.99 -187.34 99.98 -187 101 C-187.33 101.99 -187.66 102.98 -188 104 C-189.485 104.495 -189.485 104.495 -191 105 C-192.43749099 107.41147441 -192.43749099 107.41147441 -193.625 110.3125 C-194.05039063 111.27800781 -194.47578125 112.24351562 -194.9140625 113.23828125 C-196.01309304 115.85795866 -196.01309304 115.85795866 -196.52734375 118.11328125 C-197.06057954 120.2418175 -197.90788128 121.94009389 -198.9375 123.875 C-200.20429101 126.33111638 -201.1828858 128.54865741 -202.0625 131.1875 C-203.0328996 134.0986988 -204.40628301 136.39209947 -206 139 C-206 139.66 -206 140.32 -206 141 C-206.66 141 -207.32 141 -208 141 C-208.2475 141.78375 -208.495 142.5675 -208.75 143.375 C-213.55029586 157.29585799 -213.55029586 157.29585799 -217 162 C-217.66 162 -218.32 162 -219 162 C-217.47649947 157.11561136 -215.53841544 152.52874521 -213.4375 147.875 C-213.08163818 147.07989014 -212.72577637 146.28478027 -212.35913086 145.46557617 C-210.60669948 141.55430256 -208.84184581 137.64874705 -207.0703125 133.74609375 C-206.40069724 132.26838519 -205.73144049 130.79051414 -205.0625 129.3125 C-204.52834473 128.13312866 -204.52834473 128.13312866 -203.98339844 126.92993164 C-201.29272091 120.95504478 -198.67098608 114.95193323 -196.0703125 108.9375 C-167.94362184 43.9132187 -167.94362184 43.9132187 -152 25 C-151.56961426 24.48453613 -151.13922852 23.96907227 -150.69580078 23.43798828 C-133.8874372 3.53843139 -109.24958203 -10.81680886 -83.09375 -13.7890625 C-56.05896776 -15.63234311 -24.9438077 -10.94398791 0 0 Z " fill="#ECC62F" transform="translate(246,217)"/>
<path d="M0 0 C9.67866101 8.53999501 16.07177581 22.35443668 18 35 C18.11085938 35.68578125 18.22171875 36.3715625 18.3359375 37.078125 C22.0661052 65.91131316 16.51034111 96.33800988 -1.1875 119.9140625 C-15.28727181 134.99874484 -39.72325924 143.49641858 -60.11211491 144.47673678 C-63.62814736 144.57360855 -67.14106462 144.58315039 -70.65820312 144.57763672 C-72.24216009 144.58968892 -73.82610496 144.60342877 -75.41003418 144.61869812 C-79.65333949 144.6546644 -83.89638616 144.66668216 -88.13982582 144.67336798 C-92.60659765 144.68405459 -97.0732307 144.71555867 -101.53991699 144.74417114 C-109.02724782 144.78906644 -116.51451645 144.81891584 -124.00195312 144.83886719 C-132.63928842 144.86200264 -141.2763167 144.90608449 -149.9134984 144.96193302 C-158.26048706 145.0156828 -166.60749001 145.05768222 -174.95457458 145.09332657 C-178.49184209 145.10845468 -182.02906468 145.12709878 -185.56629944 145.14852524 C-189.72953518 145.17299513 -193.8926825 145.1869596 -198.0559845 145.19298744 C-199.57771057 145.19675282 -201.09943288 145.2039259 -202.62112427 145.21486855 C-210.29421372 145.26777872 -217.60721436 145.29362074 -225 143 C-225.33 142.34 -225.66 141.68 -226 141 C-224.99050797 141.16298584 -223.98101593 141.32597168 -222.94093323 141.49389648 C-219.21424759 141.97248584 -215.69867491 142.11407574 -211.94506836 142.09765625 C-211.27712753 142.09619598 -210.60918671 142.09473572 -209.92100525 142.0932312 C-208.48006885 142.0894484 -207.03913699 142.08335672 -205.59821892 142.07516479 C-203.29386849 142.06224217 -200.98957674 142.05584292 -198.68519592 142.05102539 C-192.94978833 142.03774297 -187.21443518 142.01383051 -181.47906494 141.98962402 C-175.87016556 141.96635465 -170.26128263 141.947882 -164.65234375 141.9375 C-163.87810436 141.93597931 -163.10386497 141.93445862 -162.30616379 141.93289185 C-149.84780903 141.91700388 -137.43716406 142.22575565 -125 143 C-125 142.34 -125 141.68 -125 141 C-123.9378125 141.08378906 -122.875625 141.16757812 -121.78125 141.25390625 C-120.35419621 141.35717988 -118.92711109 141.46002128 -117.5 141.5625 C-116.80390625 141.61857422 -116.1078125 141.67464844 -115.390625 141.73242188 C-111.2053937 142.02306294 -107.40748254 141.85012569 -103.23632812 141.24243164 C-98.51189635 140.73027435 -93.7459591 140.89889082 -89 140.9375 C-87.40865234 140.94426758 -87.40865234 140.94426758 -85.78515625 140.95117188 C-83.19004402 140.96286157 -80.59505291 140.97924724 -78 141 C-78 141.33 -78 141.66 -78 142 C-77.30132812 141.98839844 -76.60265625 141.97679687 -75.8828125 141.96484375 C-74.97273437 141.95582031 -74.06265625 141.94679688 -73.125 141.9375 C-72.22007812 141.92589844 -71.31515625 141.91429687 -70.3828125 141.90234375 C-68 142 -68 142 -66 143 C-66 142.34 -66 141.68 -66 141 C-65.21625 141.20625 -64.4325 141.4125 -63.625 141.625 C-58.77732613 142.1264835 -54.71442922 141.07082906 -50 140 C-48.29208026 139.68524742 -46.58375171 139.37270416 -44.875 139.0625 C-41.64216193 138.42711516 -38.6892988 137.58369564 -35.625 136.375 C-32 135 -32 135 -28 135 C-28 134.34 -28 133.68 -28 133 C-27.38511719 132.81824219 -26.77023438 132.63648438 -26.13671875 132.44921875 C-25.32847656 132.19785156 -24.52023438 131.94648438 -23.6875 131.6875 C-22.88699219 131.44386719 -22.08648437 131.20023438 -21.26171875 130.94921875 C-18.94014072 130.14262766 -18.94014072 130.14262766 -17.39453125 128.39453125 C-16.93433594 127.93433594 -16.47414062 127.47414063 -16 127 C-15.01 127 -14.02 127 -13 127 C-13 126.34 -13 125.68 -13 125 C-10.57487721 122.93887313 -8.03109976 121.07082046 -5.48046875 119.16796875 C-2.95513496 116.96078725 -1.66842807 114.87089876 0 112 C0.66 112 1.32 112 2 112 C2.20625 111.0925 2.4125 110.185 2.625 109.25 C3.62646475 105.66922316 5.19986462 102.59374199 6.9375 99.3125 C9.56375522 94.21973744 11.15808274 89.37969185 12.359375 83.7890625 C13 81 13 81 14 78.2734375 C17.4023768 67.13596971 17.71071344 54.47309674 15.5703125 43.09375 C14.84755939 39.17306187 14.62880237 35.28232133 14.44140625 31.3046875 C13.91135636 28.53717039 12.752434 27.16772435 11 25 C10.63557767 23.33985384 10.30027117 21.67293936 10 20 C9.01 18.515 9.01 18.515 8 17 C7.67 17 7.34 17 7 17 C6.67 14.69 6.34 12.38 6 10 C5.34 10 4.68 10 4 10 C3.566875 8.7934375 3.566875 8.7934375 3.125 7.5625 C2.26737432 4.8673532 2.26737432 4.8673532 0 4 C0 2.68 0 1.36 0 0 Z " fill="#E6521C" transform="translate(249,272)"/>
<path d="M0 0 C5.46228385 0.71704636 5.46228385 0.71704636 10.625 -0.5 C10.625 0.16 10.625 0.82 10.625 1.5 C14.585 1.83 18.545 2.16 22.625 2.5 C22.625 3.16 22.625 3.82 22.625 4.5 C20.954375 4.2834375 20.954375 4.2834375 19.25 4.0625 C-9.67714257 0.46019175 -38.33987735 3.49024706 -62.05078125 21.765625 C-71.16604583 29.10899512 -78.69751316 37.18127714 -84.375 47.5 C-84.90738281 48.42167969 -85.43976563 49.34335937 -85.98828125 50.29296875 C-96.11404939 68.91131661 -96.99654999 90.85529387 -94.375 111.5 C-95.035 111.17 -95.695 110.84 -96.375 110.5 C-99.95725856 98.36012378 -100.05288827 82.65302211 -96.375 70.5 C-96.15714844 69.77296875 -95.93929687 69.0459375 -95.71484375 68.296875 C-94.98349166 66.01090016 -94.19311372 63.75635018 -93.375 61.5 C-93.04113281 60.57703125 -92.70726563 59.6540625 -92.36328125 58.703125 C-91.67282853 56.80373833 -90.97638857 54.90651543 -90.2734375 53.01171875 C-89.58115928 51.07634965 -88.9876304 49.10546945 -88.4375 47.125 C-87.08613035 43.78632205 -84.90205938 42.02705938 -82.375 39.5 C-81.50261142 36.82209104 -81.50261142 36.82209104 -81.375 34.5 C-80.385 34.5 -79.395 34.5 -78.375 34.5 C-78.045 33.84 -77.715 33.18 -77.375 32.5 C-76.715 32.5 -76.055 32.5 -75.375 32.5 C-75.10558594 31.90703125 -74.83617188 31.3140625 -74.55859375 30.703125 C-68.43551974 19.3057199 -53.86901128 11.96895284 -42.375 7.5 C-41.715 7.5 -41.055 7.5 -40.375 7.5 C-40.375 6.51 -40.375 5.52 -40.375 4.5 C-36.14771585 2.82874813 -33.75970108 2.46151816 -29.375 3.5 C-27.44374034 3.1425235 -27.44374034 3.1425235 -25.375 2.5 C-24.158125 2.335 -22.94125 2.17 -21.6875 2 C-18.53674185 1.85962484 -18.53674185 1.85962484 -17.375 0.5 C-11.44609632 -0.51257681 -5.97779628 -0.46286067 0 0 Z " fill="#F0B930" transform="translate(187.375,220.5)"/>
<path d="M0 0 C0.99 0.33 1.98 0.66 3 1 C4 3.375 4 3.375 5 7 C5.24878906 7.845625 5.49757812 8.69125 5.75390625 9.5625 C8.30665622 18.44163033 9.16703186 26.73952828 9.125 35.9375 C9.13080078 37.20110352 9.13080078 37.20110352 9.13671875 38.49023438 C9.10781923 57.26047563 3.44377405 77.45987635 -10.01953125 91.18359375 C-17.66684171 98.1973992 -27.53643851 105.375 -38.3125 105.375 C-39.529375 105.25125 -40.74625 105.1275 -42 105 C-39.03380246 103.40510987 -35.98355361 102.24747715 -32.82226562 101.09814453 C-25.08216006 98.22374726 -19.03186162 94.76672484 -13 89 C-12.06800781 88.14535156 -12.06800781 88.14535156 -11.1171875 87.2734375 C2.81923972 73.08702952 6.22754053 52.13525035 6.25317383 33.07788086 C6.10843425 21.70366595 3.18590507 10.86822935 0 0 Z " fill="#E5571A" transform="translate(243,293)"/>
<path d="M0 0 C1.00949203 0.16298584 2.01898407 0.32597168 3.05906677 0.49389648 C6.78575241 0.97248584 10.30132509 1.11407574 14.05493164 1.09765625 C14.72287247 1.09619598 15.39081329 1.09473572 16.07899475 1.0932312 C17.51993115 1.0894484 18.96086301 1.08335672 20.40178108 1.07516479 C22.70613151 1.06224217 25.01042326 1.05584292 27.31480408 1.05102539 C33.05021167 1.03774297 38.78556482 1.01383051 44.52093506 0.98962402 C50.12983444 0.96635465 55.73871737 0.947882 61.34765625 0.9375 C62.12189564 0.93597931 62.89613503 0.93445862 63.69383621 0.93289185 C76.15219097 0.91700388 88.56283594 1.22575565 101 2 C101 1.34 101 0.68 101 0 C102.0621875 0.08378906 103.124375 0.16757812 104.21875 0.25390625 C105.64580379 0.35717988 107.07288891 0.46002128 108.5 0.5625 C109.19609375 0.61857422 109.8921875 0.67464844 110.609375 0.73242188 C114.7946063 1.02306294 118.59251746 0.85012569 122.76367188 0.24243164 C127.48810365 -0.26972565 132.2540409 -0.10110918 137 -0.0625 C138.59134766 -0.05573242 138.59134766 -0.05573242 140.21484375 -0.04882812 C142.80995598 -0.03713843 145.40494709 -0.02075276 148 0 C148 0.33 148 0.66 148 1 C148.69867188 0.98839844 149.39734375 0.97679687 150.1171875 0.96484375 C151.48230469 0.95130859 151.48230469 0.95130859 152.875 0.9375 C153.77992188 0.92589844 154.68484375 0.91429687 155.6171875 0.90234375 C158 1 158 1 160 2 C160 1.34 160 0.68 160 0 C160.7425 0.165 161.485 0.33 162.25 0.5 C167.50409401 1.20054587 172.70751749 1.07707499 178 1 C178 1.33 178 1.66 178 2 C173.68145888 2.82077807 169.58217887 3.1379079 165.18888855 3.17167664 C164.19842064 3.1812003 164.19842064 3.1812003 163.18794328 3.19091636 C160.98883291 3.21085903 158.78973726 3.22398114 156.59057617 3.23706055 C155.00825186 3.24992349 153.42593068 3.26317824 151.84361267 3.27679443 C147.55427034 3.31231766 143.26490745 3.3415995 138.9755075 3.36918616 C136.29289593 3.38671923 133.61029721 3.40559122 130.92769814 3.42493629 C121.56112025 3.49243503 112.19452394 3.55482432 102.82788086 3.61254883 C94.10961535 3.66641383 85.3914828 3.73152785 76.67333621 3.80188721 C69.17763776 3.86187451 61.68191099 3.91390298 54.18611318 3.95981437 C49.7139947 3.98734361 45.24195483 4.01806003 40.76991844 4.05682945 C36.56171371 4.0930424 32.35356012 4.11931048 28.14524269 4.1381073 C26.60577651 4.1466424 25.06632481 4.15864966 23.5269165 4.17449379 C15.80393212 4.25194583 8.43982318 4.3214499 1 2 C0.67 1.34 0.34 0.68 0 0 Z " fill="#EA7026" transform="translate(23,413)"/>
<path d="M0 0 C4.52566153 6.78849229 4.53361581 16.52649534 3.53515625 24.4453125 C2.65091657 28.66642745 1.0924682 32.24428785 -1 36 C-1.4228125 36.763125 -1.845625 37.52625 -2.28125 38.3125 C-8.67967715 48.83435797 -17.55365652 53.25764505 -29 57 C-29.71027344 57.2475 -30.42054688 57.495 -31.15234375 57.75 C-43.53135794 61.51866394 -57.00400581 58.83949887 -68.1875 52.9375 C-72.83880597 50.32238806 -72.83880597 50.32238806 -74 48 C-70.59833633 48.71402846 -67.64929902 49.97965141 -64.5 51.4375 C-63.5615625 51.86933594 -62.623125 52.30117188 -61.65625 52.74609375 C-59 54 -59 54 -57.0703125 55.11328125 C-47.33055678 59.284837 -35.51663708 56.78179544 -26 53.25 C-19.67768742 50.58324256 -12.51896503 47.32049399 -8 42 C-7.67 41.01 -7.34 40.02 -7 39 C-6.34 39 -5.68 39 -5 39 C-4.814375 38.13375 -4.814375 38.13375 -4.625 37.25 C-3.79451008 34.26023628 -2.3877787 31.72993637 -0.9375 29 C2.14846426 22.41660958 1.46105781 14.94002459 0 8 C-0.08557912 5.32691102 -0.04534858 2.6755663 0 0 Z " fill="#E46022" transform="translate(221,311)"/>
<path d="M0 0 C0.64571255 2.39836091 1.07779505 4.64829208 1.375 7.125 C1.71965145 10.315208 1.71965145 10.315208 5 12 C10.45924337 23.24510814 9.85899957 36.42300129 6 48 C5.34 48 4.68 48 4 48 C2.700625 49.4540625 2.700625 49.4540625 1.375 50.9375 C-3.79365448 55.48030487 -10.45846132 55.37756229 -17.02246094 55.16162109 C-25.58772551 54.46159577 -35.16601479 50.12869434 -42 45 C-42.80078125 42.8125 -42.80078125 42.8125 -43 41 C-42.47792969 41.38671875 -41.95585937 41.7734375 -41.41796875 42.171875 C-30.90725158 49.60852953 -20.96422795 52.60121559 -8 51 C-4.18604281 49.90475943 -0.95080518 48.68523271 2 46 C6.37553147 37.94705557 6.35369164 28.44018798 4.16796875 19.65625 C2.95448094 16.27484575 1.62164671 13.09208206 -0.15625 9.96875 C-1.6152713 6.56436696 -0.59741665 3.58449987 0 0 Z " fill="#E66A21" transform="translate(196,299)"/>
<path d="M0 0 C0.66 0 1.32 0 2 0 C1.77183594 0.59167969 1.54367188 1.18335938 1.30859375 1.79296875 C-1.03147147 7.80897105 -1.03147147 7.80897105 0 14 C2.99092888 15.49546444 5.71241018 15.12737757 9.04833984 15.12939453 C9.77372452 15.13114685 10.49910919 15.13289917 11.24647522 15.13470459 C13.65132012 15.13911601 16.05609181 15.13618699 18.4609375 15.1328125 C20.1300152 15.13348589 21.7990928 15.13445621 23.46817017 15.13571167 C26.97032605 15.1371878 30.47245645 15.13503734 33.97460938 15.13037109 C38.46267419 15.12468267 42.95067909 15.12794772 47.43874168 15.13394356 C50.88740489 15.13755897 54.33605392 15.13640591 57.78471756 15.13381577 C59.43931714 15.13314875 61.09391801 15.13396704 62.74851608 15.13629532 C65.06333567 15.13883691 67.37805869 15.13495956 69.69287109 15.12939453 C71.66904922 15.12820114 71.66904922 15.12820114 73.68515015 15.12698364 C76.37774588 15.02383701 78.43618133 14.68200345 81 14 C83.00946222 14.27050453 85.01354224 14.59367909 87 15 C86.67 15.99 86.34 16.98 86 18 C75.13415503 18.06951846 64.26836299 18.12282072 53.40234089 18.15543652 C48.35677038 18.17109068 43.31135206 18.19232451 38.26586914 18.22631836 C33.39645581 18.25892053 28.52718884 18.27685489 23.65767479 18.28463173 C21.80012902 18.29017368 19.94259124 18.30099576 18.0851078 18.31719017 C15.48275075 18.33897586 12.88099807 18.34196645 10.27856445 18.34057617 C9.5110788 18.351362 8.74359314 18.36214783 7.95285034 18.3732605 C3.02049179 18.3447582 -0.44702582 17.55297418 -4 14 C-4.41171167 8.75067617 -3.69025305 5.51962512 -1 1 C-0.67 0.67 -0.34 0.34 0 0 Z " fill="#F17D30" transform="translate(45,385)"/>
<path d="M0 0 C0 3.58179266 -0.84502896 4.5576607 -2.875 7.4375 C-4.82503 10.22123848 -6.55493168 12.9204612 -8 16 C-8.66 16 -9.32 16 -10 16 C-10.18175781 16.97839844 -10.18175781 16.97839844 -10.3671875 17.9765625 C-10.53476563 18.85054688 -10.70234375 19.72453125 -10.875 20.625 C-11.03742188 21.48351562 -11.19984375 22.34203125 -11.3671875 23.2265625 C-12 26 -12 26 -13.04296875 28.76953125 C-16.61856949 40.83900804 -14.13085005 52.8939828 -9 64 C-8.5906659 65.32319627 -8.20822309 66.65561719 -7.875 68 C-6.98266896 71.05942072 -5.68654361 73.31686244 -4 76 C-4 76.66 -4 77.32 -4 78 C-3.01 78.33 -2.02 78.66 -1 79 C-1.33 80.32 -1.66 81.64 -2 83 C-13.28040816 67.87945289 -18.38551742 50.26700082 -16.7890625 31.5234375 C-15.02711665 19.50305136 -7.89351058 8.8981392 0 0 Z " fill="#E4822D" transform="translate(140,268)"/>
<path d="M0 0 C0.99 0.99 0.99 0.99 2 2 C-2.35834901 1.48725306 -5.95893419 0.65787315 -10 -1 C-11.9924325 -1.37593066 -13.9918674 -1.71979545 -16 -2 C-16 -2.66 -16 -3.32 -16 -4 C-17.175625 -4.103125 -18.35125 -4.20625 -19.5625 -4.3125 C-36.31890369 -6.15945184 -36.31890369 -6.15945184 -42 -9 C-45.1903968 -9.48093917 -48.41176556 -9.71571624 -51.625 -10 C-53.06866943 -10.13027588 -53.06866943 -10.13027588 -54.54150391 -10.26318359 C-65.67643418 -11.21750388 -76.83241169 -11.6382372 -88 -12 C-88 -12.33 -88 -12.66 -88 -13 C-60.33416664 -17.51687075 -25.59466035 -11.2295467 0 0 Z " fill="#DE9D2F" transform="translate(246,217)"/>
<path d="M0 0 C0.33 0 0.66 0 1 0 C0.55647603 5.21140665 -0.7885032 9.17987978 -3.0625 13.88671875 C-4.04824332 15.94432192 -4.04824332 15.94432192 -4.50390625 18.02734375 C-5.04830233 20.19206831 -5.8903333 21.90711691 -6.9375 23.875 C-8.20429101 26.33111638 -9.1828858 28.54865741 -10.0625 31.1875 C-11.0328996 34.0986988 -12.40628301 36.39209947 -14 39 C-14 39.66 -14 40.32 -14 41 C-14.66 41 -15.32 41 -16 41 C-16.2475 41.78375 -16.495 42.5675 -16.75 43.375 C-21.55029586 57.29585799 -21.55029586 57.29585799 -25 62 C-25.66 62 -26.32 62 -27 62 C-25.47651007 57.11564533 -23.53861738 52.5286467 -21.4375 47.875 C-20.91349609 46.70517578 -20.91349609 46.70517578 -20.37890625 45.51171875 C-19.25569905 43.00640907 -18.12824754 40.50304342 -17 38 C-16.25122084 36.33597406 -15.50252273 34.67191164 -14.75390625 33.0078125 C-13.62887732 30.50769404 -12.50348885 28.00774069 -11.37695312 25.50830078 C-7.55254331 17.01977378 -3.77266487 8.51162538 0 0 Z " fill="#E8992F" transform="translate(54,317)"/>
<path d="M0 0 C1.175625 0.4125 2.35125 0.825 3.5625 1.25 C22.99047686 7.61537751 41.60838168 9.44329605 62 9 C58.72219812 11.94131956 56.78052492 13.53248764 52.3125 13.3125 C51.54550781 13.28800781 50.77851563 13.26351563 49.98828125 13.23828125 C48 13 48 13 46 12 C43.47608704 11.81617744 40.96458029 11.67457899 38.4375 11.5625 C32.41916192 11.25039309 26.84320589 10.56514443 21 9 C20.67 9.66 20.34 10.32 20 11 C19.34 10.34 18.68 9.68 18 9 C16.48096458 8.30259898 14.93463014 7.66365775 13.375 7.0625 C12.488125 6.71832031 11.60125 6.37414062 10.6875 6.01953125 C9.800625 5.68308594 8.91375 5.34664063 8 5 C7.195625 4.69449219 6.39125 4.38898438 5.5625 4.07421875 C3.71070384 3.37648841 1.85569477 2.68729436 0 2 C0 1.34 0 0.68 0 0 Z " fill="#D86D36" transform="translate(139,389)"/>
<path d="M0 0 C1.33571709 3.03572065 0.94915343 4.13474342 -0.25 7.3125 C-0.82842445 8.54398432 -1.41198752 9.77306488 -2 11 C-2.56833864 12.30998233 -3.13111067 13.62239795 -3.6875 14.9375 C-4.120625 15.948125 -4.55375 16.95875 -5 18 C-4.34 18.66 -3.68 19.32 -3 20 C-3.39832031 20.42410156 -3.79664062 20.84820312 -4.20703125 21.28515625 C-7.84761383 25.3154849 -10.30512799 28.81568562 -12 34 C-11.67 34.99 -11.34 35.98 -11 37 C-11.33 37.99 -11.66 38.98 -12 40 C-12.99 40 -13.98 40 -15 40 C-15.30609928 34.57945606 -14.49353364 31.02665447 -12.2265625 26.11328125 C-11.80085464 25.17684029 -11.80085464 25.17684029 -11.36654663 24.22148132 C-10.46490562 22.2459436 -9.54531527 20.27939626 -8.625 18.3125 C-8.01443344 16.98166582 -7.4050473 15.65028941 -6.796875 14.31835938 C-4.59577539 9.51399201 -2.39393579 4.71211412 0 0 Z " fill="#F2B22C" transform="translate(70,281)"/>
<path d="M0 0 C0.66 0 1.32 0 2 0 C1.77183594 0.59167969 1.54367188 1.18335938 1.30859375 1.79296875 C-1.03147147 7.80897105 -1.03147147 7.80897105 0 14 C2.94412027 15.47206013 5.96285915 15.23807192 9.1953125 15.31640625 C9.90275604 15.33718735 10.61019958 15.35796844 11.33908081 15.37937927 C13.60095425 15.44481078 15.86294462 15.50372974 18.125 15.5625 C19.65756422 15.60569133 21.19011657 15.64930582 22.72265625 15.69335938 C26.48165073 15.80048555 30.24076292 15.9017709 34 16 C34 16.33 34 16.66 34 17 C26.88519434 17.83463823 19.84946217 18.21083684 12.6875 18.25 C11.24407227 18.2809375 11.24407227 18.2809375 9.77148438 18.3125 C4.69763674 18.34059051 1.10680901 18.35318839 -3 15 C-4 14 -4 14 -4.25 10.8125 C-3.97697764 6.64890907 -3.0452602 3.0452602 0 0 Z " fill="#F08630" transform="translate(45,385)"/>
<path d="M0 0 C1.29625529 3.63815652 0.66851395 6.02562765 -0.375 9.6875 C-4.00212417 23.46725939 -3.78856725 37.91503291 -2 52 C-2.66 51.67 -3.32 51.34 -4 51 C-8.67849153 35.14511203 -7.4350877 14.8701754 0 0 Z " fill="#EDA229" transform="translate(95,280)"/>
<path d="M0 0 C0.66 0 1.32 0 2 0 C-0.39017772 7.59850419 -3.37202935 14.86539364 -6.5 22.1875 C-6.98597656 23.33669922 -7.47195312 24.48589844 -7.97265625 25.66992188 C-10.17940245 30.86208903 -12.43926765 35.97059083 -15 41 C-16.46826768 37.17525333 -15.48708986 35.03357519 -13.875 31.375 C-13.17503906 29.77591797 -13.17503906 29.77591797 -12.4609375 28.14453125 C-11.19400439 25.41757629 -9.87416442 22.73643141 -8.5 20.0625 C-5.94059415 15.08137786 -3.96963351 9.93116841 -2.015625 4.6875 C-1 2 -1 2 0 0 Z " fill="#F09C33" transform="translate(63,344)"/>
<path d="M0 0 C0.66 0.66 1.32 1.32 2 2 C1.57847656 2.44730469 1.15695313 2.89460938 0.72265625 3.35546875 C-3.42454251 7.93202456 -5 10.7376312 -5 17 C-5.61488281 17.08636719 -6.22976562 17.17273438 -6.86328125 17.26171875 C-9.11116546 17.80888585 -9.11116546 17.80888585 -10.23046875 19.70703125 C-10.54628906 20.40183594 -10.86210938 21.09664063 -11.1875 21.8125 C-11.51105469 22.49957031 -11.83460937 23.18664062 -12.16796875 23.89453125 C-12.96655063 25.91535582 -13.52865864 27.88134438 -14 30 C-14.33 30 -14.66 30 -15 30 C-15.75147388 23.83791422 -13.16670155 19.67222709 -10.3125 14.4375 C-9.87744141 13.60025391 -9.44238281 12.76300781 -8.99414062 11.90039062 C-6.47928166 7.19481008 -4.00891627 3.53218028 0 0 Z " fill="#F6C526" transform="translate(86,255)"/>
<path d="M0 0 C4.31059507 2.47460087 4.31059507 2.47460087 6 5 C6.66796367 8.10087197 6.746106 10.91146817 6 14 C4.46484375 15.7734375 4.46484375 15.7734375 3 17 C2.90021879 13.50765756 3.22157062 10.40562852 4 7 C0.39042389 3.7089159 -2.12637153 2.45336079 -7 2 C-7.185625 2.639375 -7.37125 3.27875 -7.5625 3.9375 C-9 6 -9 6 -12.625 6.75 C-13.73875 6.8325 -14.8525 6.915 -16 7 C-11.9429584 2.22700988 -6.29475653 -1.20537891 0 0 Z " fill="#E27A31" transform="translate(318,198)"/>
<path d="M0 0 C1.11375 0.2475 1.11375 0.2475 2.25 0.5 C7.50409401 1.20054587 12.70751749 1.07707499 18 1 C18 1.33 18 1.66 18 2 C12.10217988 3.28542233 6.25992091 3.12621861 0.2578125 3.09765625 C-0.86569611 3.0962413 -1.98920471 3.09482635 -3.14675903 3.09336853 C-6.72286683 3.08778664 -10.29891123 3.07523741 -13.875 3.0625 C-16.30468659 3.05748266 -18.73437417 3.05292016 -21.1640625 3.04882812 C-27.10939651 3.03782314 -33.05469372 3.02110301 -39 3 C-39 2.67 -39 2.34 -39 2 C-33.76743778 1.83256712 -28.53472773 1.671989 -23.30175781 1.51782227 C-21.52077543 1.4643798 -19.73984869 1.40904871 -17.95898438 1.35180664 C-15.40246583 1.26995819 -12.84582555 1.1948547 -10.2890625 1.12109375 C-9.49005524 1.09405869 -8.69104797 1.06702362 -7.86782837 1.03916931 C-2.22774341 0.88612829 -2.22774341 0.88612829 0 2 C0 1.34 0 0.68 0 0 Z " fill="#E56327" transform="translate(183,413)"/>
<path d="M0 0 C0.99 0.33 1.98 0.66 3 1 C4 3.375 4 3.375 5 7 C5.24661377 7.76368896 5.49322754 8.52737793 5.74731445 9.31420898 C7.97106361 16.56386099 8.36776292 23.13956792 8.1875 30.6875 C8.17396484 31.78255859 8.16042969 32.87761719 8.14648438 34.00585938 C8.11156837 36.67111414 8.06253717 39.33527504 8 42 C7.67 42 7.34 42 7 42 C6.96559814 41.3922876 6.93119629 40.7845752 6.89575195 40.15844727 C6.15635612 27.987648 4.90891641 16.69513969 1.0234375 5.10546875 C0 2 0 2 0 0 Z " fill="#E26621" transform="translate(243,293)"/>
<path d="M0 0 C7.56070681 6.67121189 12.7049021 16.55733139 16 26 C15.67 26.66 15.34 27.32 15 28 C12.32107435 26.35807783 11.1537925 25.61517 10.375 22.5 C10.189375 21.2625 10.189375 21.2625 10 20 C9.34 19.01 8.68 18.02 8 17 C7.67 17 7.34 17 7 17 C6.67 14.69 6.34 12.38 6 10 C5.34 10 4.68 10 4 10 C3.71125 9.195625 3.4225 8.39125 3.125 7.5625 C2.26737432 4.8673532 2.26737432 4.8673532 0 4 C0 2.68 0 1.36 0 0 Z " fill="#E76822" transform="translate(249,272)"/>
<path d="M0 0 C0.66 0.33 1.32 0.66 2 1 C0.71034824 2.37562854 -0.62689293 3.70766393 -2 5 C-2.66 5 -3.32 5 -4 5 C-4.309375 5.928125 -4.309375 5.928125 -4.625 6.875 C-6.62760402 9.96993349 -8.44147572 10.20921683 -12 11 C-19.86243571 12.08447389 -25.23454982 8.7886521 -32 5 C-31.67 4.34 -31.34 3.68 -31 3 C-30.2265625 3.3609375 -29.453125 3.721875 -28.65625 4.09375 C-20.11343338 8.32350482 -20.11343338 8.32350482 -11 8 C-7.09899474 5.60537493 -3.53092203 2.90781814 0 0 Z " fill="#E17A28" transform="translate(284,217)"/>
<path d="M0 0 C6.46367551 0.40660865 12.28671005 1.48966439 18.45703125 3.4765625 C21.34779406 4.07158895 23.18581674 3.83806473 26 3 C26.70125 2.46375 27.4025 1.9275 28.125 1.375 C28.74375 0.92125 29.3625 0.4675 30 0 C30.99 0.33 31.98 0.66 33 1 C28.58733569 5.3023477 25.34953478 7.03057447 19 7 C16.12221279 6.50072368 13.44188951 5.64724479 10.6875 4.6875 C9.98560547 4.46126953 9.28371094 4.23503906 8.56054688 4.00195312 C5.37426612 2.9479594 2.80706551 1.87137701 0 0 Z " fill="#E17527" transform="translate(254,240)"/>
<path d="M0 0 C2.36605288 1.8215366 2.9829129 2.93283949 3.73046875 5.87109375 C5.10637281 16.60784934 5.19764252 27.18456227 5 38 C4.67 38 4.34 38 4 38 C3.91697632 37.15405273 3.91697632 37.15405273 3.83227539 36.29101562 C3.576765 33.69390274 3.319642 31.09695183 3.0625 28.5 C2.97548828 27.613125 2.88847656 26.72625 2.79882812 25.8125 C2.27443018 20.52967631 1.66944125 15.26627114 1 10 C0.80469216 8.167482 0.61582967 6.33424804 0.4375 4.5 C0.35371094 3.6440625 0.26992188 2.788125 0.18359375 1.90625 C0.12300781 1.2771875 0.06242187 0.648125 0 0 Z " fill="#E45C1B" transform="translate(263,299)"/>
<path d="M0 0 C3.40166367 0.71402846 6.35070098 1.97965141 9.5 3.4375 C10.4384375 3.86933594 11.376875 4.30117188 12.34375 4.74609375 C15 6 15 6 16.921875 7.12109375 C19.85559625 8.36185931 22.57888281 8.43805641 25.75 8.625 C26.98492187 8.69847656 28.21984375 8.77195312 29.4921875 8.84765625 C33.33961188 9.01474929 37.15039165 9.07699217 41 9 C34.31156732 13.03556876 25.17469176 11.48550641 17.875 9.875 C11.79728029 8.18359731 6.23394528 5.52530273 1 2 C0.67 1.34 0.34 0.68 0 0 Z " fill="#D8662A" transform="translate(147,359)"/>
<path d="M0 0 C0.33 0 0.66 0 1 0 C0.55647603 5.21140665 -0.7885032 9.17987978 -3.0625 13.88671875 C-4.04692809 15.94048307 -4.04692809 15.94048307 -4.49609375 18.00390625 C-5.07203746 20.28535768 -5.98362299 22.16185095 -7.0625 24.25 C-7.42472656 24.95640625 -7.78695312 25.6628125 -8.16015625 26.390625 C-8.43730469 26.92171875 -8.71445312 27.4528125 -9 28 C-9.99 28 -10.98 28 -12 28 C-10.20513796 21.95523473 -7.50677707 16.33824153 -4.875 10.625 C-4.40707031 9.60277344 -3.93914063 8.58054687 -3.45703125 7.52734375 C-2.30741708 5.01696179 -1.15499936 2.50790769 0 0 Z " fill="#ECAA33" transform="translate(54,317)"/>
<path d="M0 0 C0.33 0.66 0.66 1.32 1 2 C-4.5102745 7.98987246 -11.65753046 12.28913643 -19.84765625 13.37890625 C-22.3125 13.375 -22.3125 13.375 -26 13 C-22.98070232 11.38715997 -19.86535978 10.15849319 -16.66821289 8.94384766 C-10.53785312 6.60293128 -5.09167676 4.2223661 0 0 Z " fill="#DD5A26" transform="translate(227,385)"/>
<path d="M0 0 C0 3.58179266 -0.84502896 4.5576607 -2.875 7.4375 C-4.82503 10.22123848 -6.55493168 12.9204612 -8 16 C-8.66 16 -9.32 16 -10 16 C-10.0825 16.9075 -10.165 17.815 -10.25 18.75 C-11.09248732 22.40077839 -12.17881618 23.63384583 -15 26 C-12.19768005 15.82315385 -7.07947144 7.75370682 0 0 Z " fill="#E5962D" transform="translate(140,268)"/>
<path d="M0 0 C0.99 0.33 1.98 0.66 3 1 C2.13375 1.639375 1.2675 2.27875 0.375 2.9375 C-6.86963793 9.03734845 -10.19239785 17.16431088 -13 26 C-13.33 26 -13.66 26 -14 26 C-13.88512252 24.41590006 -13.75765492 22.83271037 -13.625 21.25 C-13.55539063 20.36828125 -13.48578125 19.4865625 -13.4140625 18.578125 C-13.00149945 16.00933618 -12.28839043 14.24158985 -11 12 C-10.34 12 -9.68 12 -9 12 C-8.814375 11.13375 -8.62875 10.2675 -8.4375 9.375 C-6.63367886 5.13994166 -4.01958931 2.30074488 0 0 Z " fill="#EF962E" transform="translate(155,278)"/>
<path d="M0 0 C0.33 0.66 0.66 1.32 1 2 C0.69320312 2.77601563 0.38640625 3.55203125 0.0703125 4.3515625 C-1.49492319 9.68707395 -1.20963386 14.84775822 -1.125 20.375 C-1.11146484 22.05142578 -1.11146484 22.05142578 -1.09765625 23.76171875 C-1.07418346 26.50803462 -1.04134728 29.25390472 -1 32 C-5.71905768 24.92141349 -4.53861772 14.11865193 -3.6875 5.9375 C-2.98738042 2.94607999 -2.43994062 1.80343437 0 0 Z " fill="#D7862B" transform="translate(127,292)"/>
<path d="M0 0 C3.59024819 0.62726175 5.88002137 2.12568477 8.8125 4.25 C9.68261719 4.87777344 10.55273438 5.50554687 11.44921875 6.15234375 C12.29097656 6.76207031 13.13273437 7.37179687 14 8 C14.72832031 8.49628906 15.45664063 8.99257813 16.20703125 9.50390625 C17.84055923 10.61843145 19.4262339 11.80256927 21 13 C21 13.66 21 14.32 21 15 C16.22198779 13.68921789 13.14278259 11.81965509 9.375 8.625 C8.45460938 7.85414063 7.53421875 7.08328125 6.5859375 6.2890625 C4.30007976 4.26562952 2.12772312 2.18765898 0 0 Z " fill="#DE7732" transform="translate(101,384)"/>
<path d="M0 0 C4.673093 7.0096395 4.30477132 16.6262372 3.484375 24.7578125 C3 27 3 27 1 30 C1.01160156 28.83082031 1.02320313 27.66164063 1.03515625 26.45703125 C1.04453913 24.90885577 1.0536388 23.36067855 1.0625 21.8125 C1.07087891 21.04357422 1.07925781 20.27464844 1.08789062 19.48242188 C1.10502092 15.49106207 0.88119081 11.91028424 0 8 C-0.11678799 5.32321927 -0.0454506 2.68158543 0 0 Z " fill="#D96527" transform="translate(221,311)"/>
<path d="M0 0 C0.53367187 0.36351562 1.06734375 0.72703125 1.6171875 1.1015625 C7.29867534 4.93509236 13.09419854 8.5230981 19 12 C14.84228506 13.31538327 12.1120703 12.34433068 8 11 C8 10.34 8 9.68 8 9 C7.34 9 6.68 9 6 9 C6 8.34 6 7.68 6 7 C5.01 6.67 4.02 6.34 3 6 C1.3125 4.625 1.3125 4.625 0 3 C0 2.01 0 1.02 0 0 Z " fill="#E2742F" transform="translate(120,376)"/>
<path d="M0 0 C-5.01624348 3.00974609 -8.30937216 3.37937519 -14 3 C-14.66 2.67 -15.32 2.34 -16 2 C-17.70363822 1.77377919 -19.41328701 1.59111527 -21.125 1.4375 C-22.03507813 1.35371094 -22.94515625 1.26992188 -23.8828125 1.18359375 C-24.58148438 1.12300781 -25.28015625 1.06242187 -26 1 C-26 0.67 -26 0.34 -26 0 C-22.41713181 -0.19720979 -18.83369943 -0.38107522 -15.25 -0.5625 C-14.23421875 -0.61857422 -13.2184375 -0.67464844 -12.171875 -0.73242188 C-11.1921875 -0.78076172 -10.2125 -0.82910156 -9.203125 -0.87890625 C-8.30239258 -0.9260376 -7.40166016 -0.97316895 -6.47363281 -1.02172852 C-4.12542592 -1.00110175 -2.23793298 -0.67823071 0 0 Z " fill="#E86224" transform="translate(201,399)"/>
<path d="M0 0 C2 2 2 2 2.125 5.625 C2.08375 6.73875 2.0425 7.8525 2 9 C1.34 8.01 0.68 7.02 0 6 C-2.64 11.28 -5.28 16.56 -8 22 C-8.66 20.68 -9.32 19.36 -10 18 C-9.34 18 -8.68 18 -8 18 C-7.90847656 17.48953125 -7.81695312 16.9790625 -7.72265625 16.453125 C-6.70979202 13.01486157 -5.06779568 9.92665535 -3.4375 6.75 C-3.10814453 6.1003125 -2.77878906 5.450625 -2.43945312 4.78125 C-1.62992435 3.18565706 -0.81544958 1.59257517 0 0 Z " fill="#EF9E29" transform="translate(74,322)"/>
<path d="M0 0 C0.76171875 1.69140625 0.76171875 1.69140625 1 4 C-0.73046875 6.40234375 -0.73046875 6.40234375 -3.1875 8.9375 C-6.29695817 12.18761218 -9.23624137 15.44841132 -12 19 C-12.66 18.67 -13.32 18.34 -14 18 C-12.41727985 15.93702698 -10.83384324 13.87461051 -9.25 11.8125 C-8.8065625 11.23435547 -8.363125 10.65621094 -7.90625 10.06054688 C-5.30669974 6.67730867 -2.67770532 3.32210637 0 0 Z " fill="#EBC53B" transform="translate(98,237)"/>
<path d="M0 0 C0 0.66 0 1.32 0 2 C-0.80824219 2.10957031 -1.61648437 2.21914062 -2.44921875 2.33203125 C-4.05216797 2.56986328 -4.05216797 2.56986328 -5.6875 2.8125 C-6.74324219 2.96332031 -7.79898438 3.11414063 -8.88671875 3.26953125 C-12.1248875 4.02930234 -14.19478912 5.26519853 -17 7 C-19.68649553 7.61419008 -22.24041959 7.76613725 -25 8 C-21.4681303 4.87177255 -17.49470729 3.64983875 -13.0625 2.3125 C-12.35931641 2.08755859 -11.65613281 1.86261719 -10.93164062 1.63085938 C-7.19729 0.47940543 -3.91342838 -0.28335979 0 0 Z " fill="#D2852A" transform="translate(180,251)"/>
<path d="M0 0 C0.52207031 0.38671875 1.04414063 0.7734375 1.58203125 1.171875 C8.97814086 6.40484922 16.90437029 10.01668868 26 11 C26 11.33 26 11.66 26 12 C19.14310251 12.97955678 14.55870703 11.24428531 8.5 8.25 C7.78134766 7.90259766 7.06269531 7.55519531 6.32226562 7.19726562 C1.1761575 4.53310821 1.1761575 4.53310821 0.29492188 1.86621094 C0.19759766 1.25036133 0.10027344 0.63451172 0 0 Z " fill="#E37932" transform="translate(153,340)"/>
<path d="M0 0 C8.67181058 1.92186072 16.77952797 4.64551706 25 8 C21.80697692 9.06434103 20.19185893 8.96752058 17.125 7.625 C13.76099741 6.24538096 10.62709937 5.45338742 7 5 C7 4.34 7 3.68 7 3 C5.02 3 3.04 3 1 3 C0.67 2.01 0.34 1.02 0 0 Z " fill="#E68D2C" transform="translate(223,210)"/>
<path d="M0 0 C0.33 0 0.66 0 1 0 C1.042721 1.66611905 1.04063832 3.33382885 1 5 C0.67 5.33 0.34 5.66 0 6 C-0.07226502 7.85287502 -0.0838122 9.70833878 -0.0625 11.5625 C-0.05347656 12.57441406 -0.04445313 13.58632813 -0.03515625 14.62890625 C-0.02355469 15.41136719 -0.01195312 16.19382812 0 17 C0.99 17.33 1.98 17.66 3 18 C3 18.66 3 19.32 3 20 C-0.16115776 18.63016497 -0.9927092 18.0109362 -3 15 C-3.49882462 9.01410461 -2.67280849 5.34561698 0 0 Z " fill="#D58434" transform="translate(20,393)"/>
<path d="M0 0 C8.69082417 17.23244965 8.69082417 17.23244965 7.578125 23.30078125 C7.38734375 23.86152344 7.1965625 24.42226563 7 25 C0.29612756 8.29157175 0.29612756 8.29157175 0 0 Z " fill="#E4912D" transform="translate(76,334)"/>
<path d="M0 0 C1.39211493 4.40518562 -0.02274814 7.02311229 -2 11 C-2.43441406 11.88300781 -2.86882812 12.76601563 -3.31640625 13.67578125 C-4.5317443 16.12376985 -5.76012954 18.56436514 -7 21 C-7.66 21 -8.32 21 -9 21 C-7.50640515 16.15713185 -5.54966433 11.68649104 -3.375 7.125 C-2.88773437 6.09246094 -2.88773437 6.09246094 -2.390625 5.0390625 C-1.59676528 3.35794781 -0.79880442 1.67877079 0 0 Z " fill="#ECBA36" transform="translate(70,281)"/>
<path d="M0 0 C0.66 0.33 1.32 0.66 2 1 C-4.44280443 9.08118081 -4.44280443 9.08118081 -9 11 C-10.32 10.67 -11.64 10.34 -13 10 C-8.71 6.7 -4.42 3.4 0 0 Z " fill="#E17B2B" transform="translate(300,205)"/>
<path d="M0 0 C4.84688827 0.84570471 7.83270027 3.69681403 11.1875 7.125 C8.1875 7.125 8.1875 7.125 5.0625 5.0625 C0.72213687 2.41367025 -3.0033129 3.12172287 -7.8125 4.125 C-5.32639052 0.70659947 -4.31227862 0.14138618 0 0 Z " fill="#E2782E" transform="translate(204.8125,294.875)"/>
<path d="M0 0 C0.33 0.99 0.66 1.98 1 3 C-0.43025194 4.65213589 -1.86945545 6.29652589 -3.3125 7.9375 C-4.11300781 8.85402344 -4.91351563 9.77054687 -5.73828125 10.71484375 C-8 13 -8 13 -11 14 C-10.49104282 9.94651958 -8.5634026 8.42460406 -5.5 5.875 C-2.27622335 3.31393437 -2.27622335 3.31393437 0 0 Z " fill="#EF5313" transform="translate(239,373)"/>
<path d="M0 0 C0.53109375 0.25265625 1.0621875 0.5053125 1.609375 0.765625 C1.04089844 1.14074219 0.47242188 1.51585937 -0.11328125 1.90234375 C-4.94093324 5.10197286 -9.69806091 8.37100417 -14.390625 11.765625 C-14.390625 10.775625 -14.390625 9.785625 -14.390625 8.765625 C-12.5077457 7.0248498 -10.69256396 5.52833349 -8.640625 4.015625 C-8.10179687 3.59152344 -7.56296875 3.16742188 -7.0078125 2.73046875 C-2.97211378 -0.2913837 -2.97211378 -0.2913837 0 0 Z " fill="#E27933" transform="translate(303.390625,227.234375)"/>
<path d="M0 0 C1.32 0.66 2.64 1.32 4 2 C2.44384991 3.29930979 0.8797832 4.58914138 -0.6875 5.875 C-1.55761719 6.59429687 -2.42773438 7.31359375 -3.32421875 8.0546875 C-5.8477646 9.88932376 -8.06338486 10.99467229 -11 12 C-11 11.34 -11 10.68 -11 10 C-8.79428396 8.41152137 -6.48782685 7.04182517 -4.1640625 5.6328125 C-1.87588431 3.90635314 -1.03795694 2.63481377 0 0 Z " fill="#EB7C33" transform="translate(317,214)"/>
<path d="M0 0 C4.18659858 3.82774727 7.37820862 7.94607874 10 13 C10 13.66 10 14.32 10 15 C9.34 15 8.68 15 8 15 C8 14.01 8 13.02 8 12 C7.34 12 6.68 12 6 12 C6 11.34 6 10.68 6 10 C5.34 10 4.68 10 4 10 C3.71125 9.195625 3.4225 8.39125 3.125 7.5625 C2.26737432 4.8673532 2.26737432 4.8673532 0 4 C0 2.68 0 1.36 0 0 Z " fill="#E6752D" transform="translate(249,272)"/>
<path d="M0 0 C6.25642865 1.96630615 10.36252137 6.68368508 14 12 C13.67 12.99 13.34 13.98 13 15 C12.22076172 14.00419922 12.22076172 14.00419922 11.42578125 12.98828125 C7.81292606 8.41377883 4.25536641 3.98940601 0 0 Z " fill="#E57936" transform="translate(229,278)"/>
<path d="M0 0 C7.5 -0.375 7.5 -0.375 12 3 C8.37 3 4.74 3 1 3 C0.67 2.01 0.34 1.02 0 0 Z " fill="#FAAA1D" transform="translate(196,207)"/>
<path d="M0 0 C0.99 0.33 1.98 0.66 3 1 C1.02 5.29 -0.96 9.58 -3 14 C-4.10084497 9.59662012 -3.7915332 8.73201586 -2.0625 4.75 C-1.68222656 3.85796875 -1.30195312 2.9659375 -0.91015625 2.046875 C-0.60980469 1.37140625 -0.30945312 0.6959375 0 0 Z " fill="#E78F30" transform="translate(51,371)"/>
<path d="M0 0 C0.33 0 0.66 0 1 0 C1.34833144 4.87664009 0.41685712 7.77050005 -2 12 C-2.99 12 -3.98 12 -5 12 C-3.68938409 7.76570244 -2.05643741 3.92592596 0 0 Z " fill="#E1A138" transform="translate(47,333)"/>
<path d="M0 0 C-3.46642155 3.17755309 -7.38898294 4.45964644 -12 5 C-14.25 4.546875 -14.25 4.546875 -16 4 C-13.71144298 3.13656269 -11.4198072 2.2840189 -9.125 1.4375 C-8.47402344 1.19064453 -7.82304687 0.94378906 -7.15234375 0.68945312 C-2.2265625 -1.11328125 -2.2265625 -1.11328125 0 0 Z " fill="#E4BC31" transform="translate(149,208)"/>
<path d="M0 0 C0.66 0 1.32 0 2 0 C1.54554036 1.41791408 1.08625056 2.83428046 0.625 4.25 C0.36976562 5.03890625 0.11453125 5.8278125 -0.1484375 6.640625 C-0.95173667 8.86627958 -1.89711662 10.90931672 -3 13 C-3.44539877 4.2404908 -3.44539877 4.2404908 0 0 Z " fill="#E08A3B" transform="translate(45,385)"/>
<path d="M0 0 C0.99 0.33 1.98 0.66 3 1 C-1.67460782 5.55774263 -4.48277089 6.66290194 -11 7 C-10.484375 6.773125 -9.96875 6.54625 -9.4375 6.3125 C-6.60716733 4.78847472 -4.20120659 2.91632147 -1.68359375 0.92578125 C-0.85021484 0.46751953 -0.85021484 0.46751953 0 0 Z " fill="#D87436" transform="translate(284,240)"/>
<path d="M0 0 C0.66 0.33 1.32 0.66 2 1 C-0.475 4.465 -0.475 4.465 -3 8 C-3.99 7.67 -4.98 7.34 -6 7 C-6 6.01 -6 5.02 -6 4 C-3 1.8125 -3 1.8125 0 0 Z " fill="#F9D11D" transform="translate(105,233)"/>
<path d="M0 0 C6.14689273 0.36881356 8.69027374 1.90050429 13 6 C9.51038791 6 7.88519705 5.09620626 4.8125 3.5 C3.91144531 3.0359375 3.01039063 2.571875 2.08203125 2.09375 C1.39496094 1.7328125 0.70789063 1.371875 0 1 C0 0.67 0 0.34 0 0 Z " fill="#E58138" transform="translate(216,271)"/>
<path d="M0 0 C0.33 0.99 0.66 1.98 1 3 C-1.35968744 5.09749995 -2.54616994 5.96905704 -5.75 6.1875 C-6.86375 6.0946875 -6.86375 6.0946875 -8 6 C-5.63379989 3.38472619 -3.057952 1.73559438 0 0 Z " fill="#D47122" transform="translate(310,199)"/>
<path d="M0 0 C3.63 0 7.26 0 11 0 C11.33 1.32 11.66 2.64 12 4 C6.06 2.515 6.06 2.515 0 1 C0 0.67 0 0.34 0 0 Z " fill="#E88F2A" transform="translate(211,225)"/>
<path d="M0 0 C1.32 0.33 2.64 0.66 4 1 C4 1.66 4 2.32 4 3 C4.66 3 5.32 3 6 3 C6 3.66 6 4.32 6 5 C6.66 5 7.32 5 8 5 C7.67 6.32 7.34 7.64 7 9 C5.83037314 7.69013727 4.66437056 6.3770374 3.5 5.0625 C2.8503125 4.33160156 2.200625 3.60070312 1.53125 2.84765625 C0 1 0 1 0 0 Z " fill="#D87A2E" transform="translate(93,375)"/>
<path d="M0 0 C0.33 0 0.66 0 1 0 C0.7357513 5.37305699 0.7357513 5.37305699 0 8 C-2.5625 10 -2.5625 10 -5 11 C-4.14254495 8.42763485 -3.1606471 6.21933783 -1.9375 3.8125 C-1.57527344 3.09707031 -1.21304688 2.38164062 -0.83984375 1.64453125 C-0.42412109 0.83048828 -0.42412109 0.83048828 0 0 Z " fill="#EC5F17" transform="translate(221,338)"/>
<path d="M0 0 C0.8125 1.625 0.8125 1.625 1 4 C-0.46818136 6.24609835 -2.15852858 8.02378677 -4 10 C-4.8125 8.375 -4.8125 8.375 -5 6 C-3.53181864 3.75390165 -1.84147142 1.97621323 0 0 Z " fill="#EDCA2F" transform="translate(98,237)"/>
<path d="M0 0 C6.625 -0.125 6.625 -0.125 10 1 C9.67 1.99 9.34 2.98 9 4 C6.03 3.01 3.06 2.02 0 1 C0 0.67 0 0.34 0 0 Z " fill="#EC6C2B" transform="translate(122,399)"/>
<path d="M0 0 C0.99 0.33 1.98 0.66 3 1 C0.25 6.875 0.25 6.875 -2 8 C-1.125 1.125 -1.125 1.125 0 0 Z " fill="#F6A621" transform="translate(42,345)"/>
<path d="M0 0 C0.33 0 0.66 0 1 0 C1.33 1.98 1.66 3.96 2 6 C-0.475 7.485 -0.475 7.485 -3 9 C-2.01 6.03 -1.02 3.06 0 0 Z " fill="#E8902F" transform="translate(24,384)"/>
<path d="M0 0 C0.66 0 1.32 0 2 0 C1.32829194 3.8063457 0.27253436 7.35206816 -1 11 C-1.33 11 -1.66 11 -2 11 C-1.85957123 9.35369672 -1.71250671 7.70795821 -1.5625 6.0625 C-1.48128906 5.14597656 -1.40007812 4.22945313 -1.31640625 3.28515625 C-1 1 -1 1 0 0 Z " fill="#EC953D" transform="translate(143,293)"/>
<path d="M0 0 C-6.4 3.07692308 -6.4 3.07692308 -9.4375 2.6875 C-9.953125 2.460625 -10.46875 2.23375 -11 2 C-3.57142857 -1.57142857 -3.57142857 -1.57142857 0 0 Z " fill="#E1922B" transform="translate(166,256)"/>
<path d="M0 0 C1.258125 0.12375 2.51625 0.2475 3.8125 0.375 C4.87404297 0.47941406 4.87404297 0.47941406 5.95703125 0.5859375 C8 1 8 1 11 3 C3.57142857 3.14285714 3.57142857 3.14285714 0 2 C0 1.34 0 0.68 0 0 Z " fill="#D78236" transform="translate(212,251)"/>
<path d="M0 0 C4.62 0 9.24 0 14 0 C14.33 0.99 14.66 1.98 15 3 C7.575 2.01 7.575 2.01 0 1 C0 0.67 0 0.34 0 0 Z " fill="#EA8728" transform="translate(197,250)"/>
<path d="M0 0 C-3.51187196 2.40814077 -5.72656908 3.36629408 -10 3 C-10 2.34 -10 1.68 -10 1 C-3.71428571 -1.42857143 -3.71428571 -1.42857143 0 0 Z " fill="#FCC018" transform="translate(157,224)"/>
<path d="M0 0 C3.79588866 0.54226981 5.47211993 2.20127563 8 5 C7.67 5.66 7.34 6.32 7 7 C6.34 6.67 5.68 6.34 5 6 C5 5.34 5 4.68 5 4 C4.360625 3.71125 3.72125 3.4225 3.0625 3.125 C1 2 1 2 0 0 Z " fill="#D36E2F" transform="translate(139,352)"/>
<path d="M0 0 C-4.95 2.97 -4.95 2.97 -10 6 C-7.31325015 0.62650031 -6.07957291 -1.51989323 0 0 Z " fill="#EE962F" transform="translate(168,272)"/>
<path d="M0 0 C5.94 1.485 5.94 1.485 12 3 C12 3.33 12 3.66 12 4 C8.37 3.67 4.74 3.34 1 3 C0.67 2.01 0.34 1.02 0 0 Z " fill="#CE832D" transform="translate(223,210)"/>
<path d="M0 0 C0.99 0.66 1.98 1.32 3 2 C0.03 4.475 0.03 4.475 -3 7 C-3 5.68 -3 4.36 -3 3 C-2.34 3 -1.68 3 -1 3 C-0.67 2.01 -0.34 1.02 0 0 Z " fill="#FBB91B" transform="translate(64,299)"/>
<path d="M0 0 C0.33 0.99 0.66 1.98 1 3 C-0.98 4.32 -2.96 5.64 -5 7 C-5.66 6.67 -6.32 6.34 -7 6 C-4.69 4.02 -2.38 2.04 0 0 Z " fill="#F14C13" transform="translate(246,389)"/>
<path d="M0 0 C2.79872437 2.52788007 4.45773019 4.20411134 5 8 C2 7 2 7 0.8125 5.125 C0 3 0 3 0 0 Z " fill="#DB6B24" transform="translate(216,303)"/>
<path d="M0 0 C-0.33 1.32 -0.66 2.64 -1 4 C-2.98 4 -4.96 4 -7 4 C-3.17391304 0 -3.17391304 0 0 0 Z " fill="#E3952D" transform="translate(155,259)"/>
<path d="M0 0 C0.99 0.33 1.98 0.66 3 1 C1.35 2.65 -0.3 4.3 -2 6 C-2.33 5.34 -2.66 4.68 -3 4 C-2.01 2.68 -1.02 1.36 0 0 Z " fill="#F77F1E" transform="translate(302,205)"/>
<path d="M0 0 C1.65 0 3.3 0 5 0 C4.67 0.99 4.34 1.98 4 3 C2.35 3.33 0.7 3.66 -1 4 C-0.67 2.68 -0.34 1.36 0 0 Z " fill="#FCC820" transform="translate(148,208)"/>
</svg>
