<?xml version="1.0" encoding="UTF-8"?>
<svg version="1.1" xmlns="http://www.w3.org/2000/svg" width="256" height="256">
<path d="M0 0 C1.23286374 1.03393553 2.44512485 2.09348431 3.625 3.1875 C4.17414063 3.68636719 4.72328125 4.18523438 5.2890625 4.69921875 C7.95334271 7.66732039 8.02884038 11.2631682 7.96484375 15.1171875 C7.32286176 19.02811227 5.60393106 20.58885801 2.625 23.1875 C-1.1875 24.0625 -1.1875 24.0625 -4.375 24.1875 C-4.04886719 25.07566406 -3.72273437 25.96382812 -3.38671875 26.87890625 C-1.77921408 32.52148886 -2.1253037 38.30800881 -2.1875 44.125 C-2.1884668 45.83719727 -2.1884668 45.83719727 -2.18945312 47.58398438 C-2.22042427 53.54076808 -2.47174197 59.29825764 -3.375 65.1875 C-2.281875 64.98125 -1.18875 64.775 -0.0625 64.5625 C3.625 64.1875 3.625 64.1875 6.625 66.1875 C11.61304051 66.89413907 16.37848538 66.08032211 21.25 65 C26.22497477 64.04910455 29.33344141 64.48175742 33.625 67.1875 C34.47964844 67.70054688 35.33429688 68.21359375 36.21484375 68.7421875 C40.58779523 71.44154026 44.77881153 74.25342701 48.8125 77.4375 C51.86259555 79.79747292 54.69714843 80.93742624 58.3671875 82.16796875 C67.52774213 86.30448217 75.38539815 94.35527125 82.625 101.1875 C83.44742188 101.93386719 84.26984375 102.68023437 85.1171875 103.44921875 C96.96501482 114.61422737 106.54308135 128.22725692 107.03808594 144.83227539 C107.15160193 157.81737002 105.91093049 169.64689454 97.625 180.1875 C91.47657512 186.44170423 83.69482335 189.27447733 74.98828125 189.47265625 C66.3979979 189.3802488 58.01910433 187.4166555 49.625 185.75 C47.91814007 185.42033572 46.21110963 185.09155295 44.50390625 184.76367188 C32.21134138 182.38294713 32.21134138 182.38294713 28.625 181.1875 C28.955 181.8475 29.285 182.5075 29.625 183.1875 C30.1263013 187.40702265 30.41790776 191.64331107 30.71972656 195.88110352 C30.87373543 197.98274344 31.04999281 200.08179304 31.2265625 202.18164062 C31.324308 203.52333686 31.42070557 204.86513212 31.515625 206.20703125 C31.65532715 208.03391479 31.65532715 208.03391479 31.79785156 209.89770508 C31.60492477 213.56958151 30.84473396 215.29527034 28.625 218.1875 C25.70596778 219.64701611 23.14290851 219.32025074 19.88162231 219.32794189 C18.82973593 219.33239858 18.82973593 219.33239858 17.75659931 219.3369453 C15.39517537 219.34565117 13.03380202 219.34714213 10.67236328 219.34863281 C8.98399751 219.35325963 7.29563278 219.3582841 5.60726929 219.36367798 C1.01222477 219.37681658 -3.58280513 219.3832497 -8.17786551 219.38768864 C-11.04668087 219.39061683 -13.91549222 219.39472113 -16.78430557 219.39919281 C-25.75443118 219.41287119 -34.72454764 219.42253635 -43.69468296 219.4263947 C-54.06015326 219.43087735 -64.42549181 219.44843343 -74.79092205 219.4773953 C-82.79605693 219.49898832 -90.80115469 219.5090977 -98.8063184 219.51043582 C-103.59076758 219.5114855 -108.37509297 219.51742787 -113.15951157 219.53525543 C-117.65910967 219.5516952 -122.15849039 219.55391164 -126.65810776 219.54511642 C-128.31091899 219.54434386 -129.96374172 219.5487175 -131.61652374 219.55857468 C-133.87049529 219.5712305 -136.12368951 219.56545277 -138.37765503 219.55499268 C-140.27080853 219.55719252 -140.27080853 219.55719252 -142.20220757 219.5594368 C-145.59718464 219.16145397 -147.00787169 218.61459745 -149.375 216.1875 C-149.87620544 213.67002869 -149.87620544 213.67002869 -149.87670898 210.62475586 C-149.88608994 209.48183578 -149.89547089 208.33891571 -149.90513611 207.16136169 C-149.89390213 205.92088577 -149.88266815 204.68040985 -149.87109375 203.40234375 C-149.87254898 202.11751602 -149.87400421 200.83268829 -149.87550354 199.50892639 C-149.87689029 196.77747275 -149.86431039 194.04654222 -149.84155273 191.31518555 C-149.81358443 187.8690692 -149.81606947 184.42384077 -149.82824326 180.97766209 C-149.90804093 152.81081972 -147.90695373 126.84256267 -128 105.3125 C-123.62488214 101.22029969 -118.48536791 98.26232165 -113.375 95.1875 C-112.65183594 94.70667969 -111.92867187 94.22585937 -111.18359375 93.73046875 C-102.26714339 87.94035877 -92.16553174 84.23288394 -82.375 80.1875 C-83.30570312 79.45917969 -84.23640625 78.73085937 -85.1953125 77.98046875 C-87.89130553 75.73117251 -89.58686104 73.62484184 -91.25 70.5 C-93.37254436 66.72410529 -95.67657039 63.53354406 -98.5 60.25 C-106.32624996 50.73280119 -108.0595639 39.21362254 -107.375 27.1875 C-106.44248198 18.22921214 -102.39792554 10.44505588 -95.4375 4.6875 C-94.75429687 4.13964844 -94.07109375 3.59179688 -93.3671875 3.02734375 C-91.12784175 0.95924209 -89.69654074 -1.18166323 -88.0625 -3.75 C-82.38623703 -12.27088904 -73.37435587 -18.17435288 -63.4375 -20.5 C-42.92437825 -22.59317569 -16.33251421 -12.54718271 0 0 Z " fill="#7090B1" transform="translate(149.375,28.8125)"/>
<path d="M0 0 C1.23286374 1.03393553 2.44512485 2.09348431 3.625 3.1875 C4.17414063 3.68636719 4.72328125 4.18523438 5.2890625 4.69921875 C7.95334271 7.66732039 8.02884038 11.2631682 7.96484375 15.1171875 C7.32286176 19.02811227 5.60393106 20.58885801 2.625 23.1875 C-1.1875 24.0625 -1.1875 24.0625 -4.375 24.1875 C-4.04886719 25.07566406 -3.72273437 25.96382812 -3.38671875 26.87890625 C-1.77921408 32.52148886 -2.1253037 38.30800881 -2.1875 44.125 C-2.1884668 45.83719727 -2.1884668 45.83719727 -2.18945312 47.58398438 C-2.22042427 53.54076808 -2.47174197 59.29825764 -3.375 65.1875 C-2.281875 64.98125 -1.18875 64.775 -0.0625 64.5625 C3.625 64.1875 3.625 64.1875 6.625 66.1875 C11.61304051 66.89413907 16.37848538 66.08032211 21.25 65 C26.22497477 64.04910455 29.33344141 64.48175742 33.625 67.1875 C34.47964844 67.70054688 35.33429688 68.21359375 36.21484375 68.7421875 C40.58779523 71.44154026 44.77881153 74.25342701 48.8125 77.4375 C51.86259555 79.79747292 54.69714843 80.93742624 58.3671875 82.16796875 C67.52774213 86.30448217 75.38539815 94.35527125 82.625 101.1875 C83.44742188 101.93386719 84.26984375 102.68023437 85.1171875 103.44921875 C96.96501482 114.61422737 106.54308135 128.22725692 107.03808594 144.83227539 C107.15160193 157.81737002 105.91093049 169.64689454 97.625 180.1875 C91.47657512 186.44170423 83.69482335 189.27447733 74.98828125 189.47265625 C66.3979979 189.3802488 58.01910433 187.4166555 49.625 185.75 C47.91814007 185.42033572 46.21110963 185.09155295 44.50390625 184.76367188 C32.21134138 182.38294713 32.21134138 182.38294713 28.625 181.1875 C28.955 181.8475 29.285 182.5075 29.625 183.1875 C30.1263013 187.40702265 30.41790776 191.64331107 30.71972656 195.88110352 C30.87373543 197.98274344 31.04999281 200.08179304 31.2265625 202.18164062 C31.324308 203.52333686 31.42070557 204.86513212 31.515625 206.20703125 C31.65532715 208.03391479 31.65532715 208.03391479 31.79785156 209.89770508 C31.60492477 213.56958151 30.84473396 215.29527034 28.625 218.1875 C25.70596778 219.64701611 23.14290851 219.32025074 19.88162231 219.32794189 C18.82973593 219.33239858 18.82973593 219.33239858 17.75659931 219.3369453 C15.39517537 219.34565117 13.03380202 219.34714213 10.67236328 219.34863281 C8.98399751 219.35325963 7.29563278 219.3582841 5.60726929 219.36367798 C1.01222477 219.37681658 -3.58280513 219.3832497 -8.17786551 219.38768864 C-11.04668087 219.39061683 -13.91549222 219.39472113 -16.78430557 219.39919281 C-25.75443118 219.41287119 -34.72454764 219.42253635 -43.69468296 219.4263947 C-54.06015326 219.43087735 -64.42549181 219.44843343 -74.79092205 219.4773953 C-82.79605693 219.49898832 -90.80115469 219.5090977 -98.8063184 219.51043582 C-103.59076758 219.5114855 -108.37509297 219.51742787 -113.15951157 219.53525543 C-117.65910967 219.5516952 -122.15849039 219.55391164 -126.65810776 219.54511642 C-128.31091899 219.54434386 -129.96374172 219.5487175 -131.61652374 219.55857468 C-133.87049529 219.5712305 -136.12368951 219.56545277 -138.37765503 219.55499268 C-140.27080853 219.55719252 -140.27080853 219.55719252 -142.20220757 219.5594368 C-145.59718464 219.16145397 -147.00787169 218.61459745 -149.375 216.1875 C-149.87620544 213.67002869 -149.87620544 213.67002869 -149.87670898 210.62475586 C-149.88608994 209.48183578 -149.89547089 208.33891571 -149.90513611 207.16136169 C-149.89390213 205.92088577 -149.88266815 204.68040985 -149.87109375 203.40234375 C-149.87254898 202.11751602 -149.87400421 200.83268829 -149.87550354 199.50892639 C-149.87689029 196.77747275 -149.86431039 194.04654222 -149.84155273 191.31518555 C-149.81358443 187.8690692 -149.81606947 184.42384077 -149.82824326 180.97766209 C-149.90804093 152.81081972 -147.90695373 126.84256267 -128 105.3125 C-123.62488214 101.22029969 -118.48536791 98.26232165 -113.375 95.1875 C-112.65183594 94.70667969 -111.92867187 94.22585937 -111.18359375 93.73046875 C-102.26714339 87.94035877 -92.16553174 84.23288394 -82.375 80.1875 C-83.30570312 79.45917969 -84.23640625 78.73085937 -85.1953125 77.98046875 C-87.89130553 75.73117251 -89.58686104 73.62484184 -91.25 70.5 C-93.37254436 66.72410529 -95.67657039 63.53354406 -98.5 60.25 C-106.32624996 50.73280119 -108.0595639 39.21362254 -107.375 27.1875 C-106.44248198 18.22921214 -102.39792554 10.44505588 -95.4375 4.6875 C-94.75429687 4.13964844 -94.07109375 3.59179688 -93.3671875 3.02734375 C-91.12784175 0.95924209 -89.69654074 -1.18166323 -88.0625 -3.75 C-82.38623703 -12.27088904 -73.37435587 -18.17435288 -63.4375 -20.5 C-42.92437825 -22.59317569 -16.33251421 -12.54718271 0 0 Z M-82.375 -0.8125 C-83.62313417 1.01645817 -83.62313417 1.01645817 -84.5 2.8125 C-86.63812294 6.66112129 -89.0604856 8.6503836 -92.40625 11.421875 C-96.4430153 15.04214864 -100.04075248 19.550426 -100.55200195 25.11352539 C-100.96193839 39.64095415 -99.98662235 48.58308223 -90.08935547 59.77441406 C-87.41076753 62.81668745 -85.3981886 65.73620907 -83.625 69.375 C-81.93976338 72.772084 -81.93976338 72.772084 -78.375 74.25 C-77.385 74.229375 -76.395 74.20875 -75.375 74.1875 C-74.42625 74.208125 -73.4775 74.22875 -72.5 74.25 C-71.79875 74.229375 -71.0975 74.20875 -70.375 74.1875 C-70.705 77.1575 -71.035 80.1275 -71.375 83.1875 C-72.24898437 83.53361328 -72.24898437 83.53361328 -73.140625 83.88671875 C-111.07968169 98.61212216 -111.07968169 98.61212216 -136.375 129.1875 C-146.90918313 155.57344114 -143.375 184.48578239 -143.375 212.1875 C-104.105 212.1875 -64.835 212.1875 -24.375 212.1875 C-24.375 206.65775406 -24.41901982 201.69702653 -24.99609375 196.28515625 C-25.12628906 195.00092773 -25.25648437 193.71669922 -25.390625 192.39355469 C-25.45958984 191.72014038 -25.52855469 191.04672607 -25.59960938 190.35290527 C-26.91657189 177.3441247 -27.66047628 164.42275496 -27.91571045 151.35281372 C-28.18816566 138.01358536 -29.16029193 124.7790325 -30.359375 111.49316406 C-30.49120845 110.01630484 -30.62272891 108.53941764 -30.75390625 107.0625 C-30.81712067 106.36266998 -30.88033508 105.66283997 -30.94546509 104.94180298 C-31.27393464 101.10923608 -31.40826352 97.35191058 -31.30859375 93.5078125 C-31.24011136 89.49414901 -32.01951949 86.680687 -33.875 83.0625 C-34.3390625 82.13179688 -34.803125 81.20109375 -35.28125 80.2421875 C-35.6421875 79.56414062 -36.003125 78.88609375 -36.375 78.1875 C-35.17875 78.084375 -33.9825 77.98125 -32.75 77.875 C-30.95716288 77.65517761 -29.16564765 77.42449748 -27.375 77.1875 C-26.18390625 77.04957031 -24.9928125 76.91164063 -23.765625 76.76953125 C-17.01729071 76.02628318 -17.01729071 76.02628318 -11.84765625 72.19921875 C-11.0415491 69.81298118 -10.64244263 67.69028398 -10.375 65.1875 C-10.2095166 64.27830811 -10.0440332 63.36911621 -9.87353516 62.43237305 C-7.45856609 46.71378643 -8.06717657 29.23423159 -13.375 14.1875 C-12.44042969 14.83847656 -11.50585938 15.48945312 -10.54296875 16.16015625 C-7.31859059 18.22359924 -6.08035545 18.88851319 -2.375 18.1875 C-0.35548938 17.25152685 -0.35548938 17.25152685 0.625 15.1875 C1.18064353 11.791979 1.18064353 11.791979 -0.375 8.1875 C-12.79440605 -4.40242421 -39.28956501 -13.79162625 -56.625 -14.125 C-68.19004413 -14.11254214 -74.52629694 -9.09724211 -82.375 -0.8125 Z " fill="#D85C2A" transform="translate(149.375,28.8125)"/>
<path d="M0 0 C1.23286374 1.03393553 2.44512485 2.09348431 3.625 3.1875 C4.17414063 3.68636719 4.72328125 4.18523438 5.2890625 4.69921875 C7.95334271 7.66732039 8.02884038 11.2631682 7.96484375 15.1171875 C7.32286176 19.02811227 5.60393106 20.58885801 2.625 23.1875 C-1.1875 24.0625 -1.1875 24.0625 -4.375 24.1875 C-4.04886719 25.07566406 -3.72273437 25.96382812 -3.38671875 26.87890625 C-1.77921408 32.52148886 -2.1253037 38.30800881 -2.1875 44.125 C-2.1884668 45.83719727 -2.1884668 45.83719727 -2.18945312 47.58398438 C-2.22042427 53.54076808 -2.47174197 59.29825764 -3.375 65.1875 C-2.281875 64.98125 -1.18875 64.775 -0.0625 64.5625 C3.625 64.1875 3.625 64.1875 6.625 66.1875 C11.61304051 66.89413907 16.37848538 66.08032211 21.25 65 C26.22497477 64.04910455 29.33344141 64.48175742 33.625 67.1875 C34.47964844 67.70054688 35.33429688 68.21359375 36.21484375 68.7421875 C40.58779523 71.44154026 44.77881153 74.25342701 48.8125 77.4375 C51.86259555 79.79747292 54.69714843 80.93742624 58.3671875 82.16796875 C67.52774213 86.30448217 75.38539815 94.35527125 82.625 101.1875 C83.44742188 101.93386719 84.26984375 102.68023437 85.1171875 103.44921875 C96.96501482 114.61422737 106.54308135 128.22725692 107.03808594 144.83227539 C107.15160193 157.81737002 105.91093049 169.64689454 97.625 180.1875 C91.47657512 186.44170423 83.69482335 189.27447733 74.98828125 189.47265625 C66.3979979 189.3802488 58.01910433 187.4166555 49.625 185.75 C47.91814007 185.42033572 46.21110963 185.09155295 44.50390625 184.76367188 C32.21134138 182.38294713 32.21134138 182.38294713 28.625 181.1875 C28.955 181.8475 29.285 182.5075 29.625 183.1875 C30.1263013 187.40702265 30.41790776 191.64331107 30.71972656 195.88110352 C30.87373543 197.98274344 31.04999281 200.08179304 31.2265625 202.18164062 C31.324308 203.52333686 31.42070557 204.86513212 31.515625 206.20703125 C31.65532715 208.03391479 31.65532715 208.03391479 31.79785156 209.89770508 C31.60492477 213.56958151 30.84473396 215.29527034 28.625 218.1875 C25.70596778 219.64701611 23.14290851 219.32025074 19.88162231 219.32794189 C18.82973593 219.33239858 18.82973593 219.33239858 17.75659931 219.3369453 C15.39517537 219.34565117 13.03380202 219.34714213 10.67236328 219.34863281 C8.98399751 219.35325963 7.29563278 219.3582841 5.60726929 219.36367798 C1.01222477 219.37681658 -3.58280513 219.3832497 -8.17786551 219.38768864 C-11.04668087 219.39061683 -13.91549222 219.39472113 -16.78430557 219.39919281 C-25.75443118 219.41287119 -34.72454764 219.42253635 -43.69468296 219.4263947 C-54.06015326 219.43087735 -64.42549181 219.44843343 -74.79092205 219.4773953 C-82.79605693 219.49898832 -90.80115469 219.5090977 -98.8063184 219.51043582 C-103.59076758 219.5114855 -108.37509297 219.51742787 -113.15951157 219.53525543 C-117.65910967 219.5516952 -122.15849039 219.55391164 -126.65810776 219.54511642 C-128.31091899 219.54434386 -129.96374172 219.5487175 -131.61652374 219.55857468 C-133.87049529 219.5712305 -136.12368951 219.56545277 -138.37765503 219.55499268 C-140.27080853 219.55719252 -140.27080853 219.55719252 -142.20220757 219.5594368 C-145.59718464 219.16145397 -147.00787169 218.61459745 -149.375 216.1875 C-149.87620544 213.67002869 -149.87620544 213.67002869 -149.87670898 210.62475586 C-149.88608994 209.48183578 -149.89547089 208.33891571 -149.90513611 207.16136169 C-149.89390213 205.92088577 -149.88266815 204.68040985 -149.87109375 203.40234375 C-149.87254898 202.11751602 -149.87400421 200.83268829 -149.87550354 199.50892639 C-149.87689029 196.77747275 -149.86431039 194.04654222 -149.84155273 191.31518555 C-149.81358443 187.8690692 -149.81606947 184.42384077 -149.82824326 180.97766209 C-149.90804093 152.81081972 -147.90695373 126.84256267 -128 105.3125 C-123.62488214 101.22029969 -118.48536791 98.26232165 -113.375 95.1875 C-112.65183594 94.70667969 -111.92867187 94.22585937 -111.18359375 93.73046875 C-102.26714339 87.94035877 -92.16553174 84.23288394 -82.375 80.1875 C-83.30570312 79.45917969 -84.23640625 78.73085937 -85.1953125 77.98046875 C-87.89130553 75.73117251 -89.58686104 73.62484184 -91.25 70.5 C-93.37254436 66.72410529 -95.67657039 63.53354406 -98.5 60.25 C-106.32624996 50.73280119 -108.0595639 39.21362254 -107.375 27.1875 C-106.44248198 18.22921214 -102.39792554 10.44505588 -95.4375 4.6875 C-94.75429687 4.13964844 -94.07109375 3.59179688 -93.3671875 3.02734375 C-91.12784175 0.95924209 -89.69654074 -1.18166323 -88.0625 -3.75 C-82.38623703 -12.27088904 -73.37435587 -18.17435288 -63.4375 -20.5 C-42.92437825 -22.59317569 -16.33251421 -12.54718271 0 0 Z M-82.375 -0.8125 C-83.62313417 1.01645817 -83.62313417 1.01645817 -84.5 2.8125 C-86.63812294 6.66112129 -89.0604856 8.6503836 -92.40625 11.421875 C-96.4430153 15.04214864 -100.04075248 19.550426 -100.55200195 25.11352539 C-100.96193839 39.64095415 -99.98662235 48.58308223 -90.08935547 59.77441406 C-87.41076753 62.81668745 -85.3981886 65.73620907 -83.625 69.375 C-81.93976338 72.772084 -81.93976338 72.772084 -78.375 74.25 C-77.385 74.229375 -76.395 74.20875 -75.375 74.1875 C-74.42625 74.208125 -73.4775 74.22875 -72.5 74.25 C-71.79875 74.229375 -71.0975 74.20875 -70.375 74.1875 C-70.705 77.1575 -71.035 80.1275 -71.375 83.1875 C-72.24898437 83.53361328 -72.24898437 83.53361328 -73.140625 83.88671875 C-111.07968169 98.61212216 -111.07968169 98.61212216 -136.375 129.1875 C-146.90918313 155.57344114 -143.375 184.48578239 -143.375 212.1875 C-87.935 212.1875 -32.495 212.1875 24.625 212.1875 C23.8117827 192.56660023 23.8117827 192.56660023 21.625 173.1875 C22.56182617 173.38907715 23.49865234 173.5906543 24.46386719 173.79833984 C27.99696743 174.55778649 31.53084223 175.31357623 35.06494141 176.06835938 C36.58370401 176.39323525 38.10226525 176.71905416 39.62060547 177.04589844 C63.89182569 183.45755073 63.89182569 183.45755073 87.625 179.1875 C94.19007941 174.93950744 97.24888825 169.00032606 99.37890625 161.55078125 C102.22174168 147.93300312 101.25246087 136.02904173 93.67578125 124.125 C91.43536535 121.03588076 89.08516881 118.10439282 86.625 115.1875 C85.78839844 114.1871875 84.95179688 113.186875 84.08984375 112.15625 C75.51415601 102.21835339 64.57643697 91.94246768 52.109375 87.23828125 C48.67064225 85.78384869 45.8496384 83.59086418 42.875 81.375 C33.5776699 73.82889079 33.5776699 73.82889079 22.4375 70.9375 C15.71305294 72.12205562 9.55584424 75.95632882 3.625 79.1875 C3.625 82.4875 3.625 85.7875 3.625 89.1875 C4.945 89.5175 6.265 89.8475 7.625 90.1875 C9.9023501 87.37240007 9.9023501 87.37240007 9.625 84.1875 C12.595 83.6925 12.595 83.6925 15.625 83.1875 C15.09390625 83.75597656 14.5628125 84.32445313 14.015625 84.91015625 C6.3928138 92.87750045 6.3928138 92.87750045 3.375 103.125 C3.4575 104.135625 3.54 105.14625 3.625 106.1875 C4.800625 105.878125 4.800625 105.878125 6 105.5625 C6.86625 105.43875 7.7325 105.315 8.625 105.1875 C9.285 105.8475 9.945 106.5075 10.625 107.1875 C7.655 108.6725 7.655 108.6725 4.625 110.1875 C4.625 112.1675 4.625 114.1475 4.625 116.1875 C3.614375 116.27 2.60375 116.3525 1.5625 116.4375 C-5.22440284 117.25978298 -11.80597306 119.34851459 -18.375 121.1875 C-18.76945312 119.93710938 -19.16390625 118.68671875 -19.5703125 117.3984375 C-21.46444419 111.72048353 -23.83342865 106.28425616 -26.25 100.8125 C-26.67152344 99.84828125 -27.09304687 98.8840625 -27.52734375 97.890625 C-30.4179743 91.29609781 -33.38035857 84.73537712 -36.375 78.1875 C-35.17875 78.084375 -33.9825 77.98125 -32.75 77.875 C-30.95716288 77.65517761 -29.16564765 77.42449748 -27.375 77.1875 C-26.18390625 77.04957031 -24.9928125 76.91164063 -23.765625 76.76953125 C-17.01729071 76.02628318 -17.01729071 76.02628318 -11.84765625 72.19921875 C-11.0415491 69.81298118 -10.64244263 67.69028398 -10.375 65.1875 C-10.2095166 64.27830811 -10.0440332 63.36911621 -9.87353516 62.43237305 C-7.45856609 46.71378643 -8.06717657 29.23423159 -13.375 14.1875 C-12.44042969 14.83847656 -11.50585938 15.48945312 -10.54296875 16.16015625 C-7.31859059 18.22359924 -6.08035545 18.88851319 -2.375 18.1875 C-0.35548938 17.25152685 -0.35548938 17.25152685 0.625 15.1875 C1.18064353 11.791979 1.18064353 11.791979 -0.375 8.1875 C-12.79440605 -4.40242421 -39.28956501 -13.79162625 -56.625 -14.125 C-68.19004413 -14.11254214 -74.52629694 -9.09724211 -82.375 -0.8125 Z " fill="#FDFCFB" transform="translate(149.375,28.8125)"/>
<path d="M0 0 C0.29782202 18.13048844 -0.22284122 36.15411213 -1.0765686 54.26223755 C-1.82528628 70.1635202 -2.35076671 86.05598883 -2.65795898 101.97192383 C-2.68241592 103.14540375 -2.68241592 103.14540375 -2.70736694 104.34259033 C-2.7502898 106.42242101 -2.78856668 108.50234619 -2.82641602 110.58227539 C-3.05488633 116.3968609 -3.55369752 122.19806779 -4 128 C-26.77 128 -49.54 128 -73 128 C-73.061875 119.605625 -73.12375 111.21125 -73.1875 102.5625 C-73.22846802 98.64419312 -73.22846802 98.64419312 -73.27026367 94.64672852 C-73.41919555 70.11901539 -71.05484514 44.91904359 -53.40234375 26.1484375 C-41.63581723 15.6255276 -26.1539227 9.04899711 -11.75 3 C-10.67721802 2.54536377 -10.67721802 2.54536377 -9.58276367 2.08154297 C-6.11644417 0.6657516 -3.80151118 0 0 0 Z " fill="#D75B29" transform="translate(79,113)"/>
<path d="M0 0 C6.88088835 4.25102003 6.88088835 4.25102003 9.359375 7.96875 C9.71179862 10.78813897 9.70583457 12.35735077 8.296875 14.84375 C5.15052575 16.67066247 2.78591591 15.81035654 -0.640625 14.96875 C-3.078125 13.40625 -3.078125 13.40625 -4.640625 11.96875 C-4.475625 12.46375 -4.310625 12.95875 -4.140625 13.46875 C-3.43373682 17.00319089 -3.58057345 20.36565701 -3.640625 23.96875 C-5.265625 24.78125 -5.265625 24.78125 -7.640625 24.96875 C-12.77333188 21.50975188 -16.11872758 17.00181617 -19.640625 11.96875 C-19.82238281 12.99935547 -19.82238281 12.99935547 -20.0078125 14.05078125 C-20.17539063 14.95183594 -20.34296875 15.85289063 -20.515625 16.78125 C-20.67804688 17.67457031 -20.84046875 18.56789062 -21.0078125 19.48828125 C-21.640625 21.96875 -21.640625 21.96875 -23.640625 24.96875 C-28.51425347 24.51538921 -31.03104889 23.2598341 -34.640625 19.96875 C-34.62902344 20.58363281 -34.61742187 21.19851562 -34.60546875 21.83203125 C-34.59644531 22.64027344 -34.58742187 23.44851562 -34.578125 24.28125 C-34.56652344 25.08175781 -34.55492187 25.88226563 -34.54296875 26.70703125 C-34.640625 28.96875 -34.640625 28.96875 -35.640625 31.96875 C-33.990625 32.29875 -32.340625 32.62875 -30.640625 32.96875 C-31.515625 36.84375 -31.515625 36.84375 -32.640625 37.96875 C-34.28995728 37.90475474 -35.93677631 37.76801084 -37.578125 37.59375 C-38.92197266 37.45839844 -38.92197266 37.45839844 -40.29296875 37.3203125 C-42.640625 36.96875 -42.640625 36.96875 -44.640625 35.96875 C-44.78757812 36.99935547 -44.78757812 36.99935547 -44.9375 38.05078125 C-45.08703125 38.95183594 -45.2365625 39.85289063 -45.390625 40.78125 C-45.52984375 41.67457031 -45.6690625 42.56789062 -45.8125 43.48828125 C-46.83313088 46.54535961 -47.82898111 47.44661904 -50.640625 48.96875 C-51.960625 48.96875 -53.280625 48.96875 -54.640625 48.96875 C-54.970625 50.94875 -55.300625 52.92875 -55.640625 54.96875 C-57.640625 51.96875 -57.640625 51.96875 -58.890625 48.96875 C-61.05941086 45.25083138 -62.60205858 44.3667153 -66.640625 42.96875 C-71.07061469 42.34699706 -72.89463767 42.47142511 -76.640625 44.96875 C-78.66777116 48.00946924 -78.96786782 48.55937908 -78.703125 51.96875 C-77.91584943 55.83952156 -76.54775316 58.21876391 -73.640625 60.96875 C-69.69258954 63.37190202 -66.21663694 64.42398667 -61.640625 64.96875 C-61.640625 67.27875 -61.640625 69.58875 -61.640625 71.96875 C-63.05556051 72.07759119 -64.47295443 72.15472617 -65.890625 72.21875 C-66.67953125 72.26515625 -67.4684375 72.3115625 -68.28125 72.359375 C-71.53291116 71.8210205 -72.56833198 70.48140528 -74.640625 67.96875 C-75.60596804 66.45708645 -76.52174471 64.91284558 -77.390625 63.34375 C-80.09922616 58.65711187 -83.24355072 54.65022719 -86.80859375 50.5859375 C-91.23956341 44.25598084 -92.14519343 38.0657737 -92.078125 30.46875 C-92.09810547 29.66566406 -92.11808594 28.86257812 -92.13867188 28.03515625 C-92.13295506 20.98060991 -90.13326439 15.93982305 -85.60546875 10.54296875 C-84.93644531 9.92035156 -84.26742187 9.29773438 -83.578125 8.65625 C-82.57072266 7.70298828 -82.57072266 7.70298828 -81.54296875 6.73046875 C-80.60130859 5.85841797 -80.60130859 5.85841797 -79.640625 4.96875 C-77.6535407 3.08078392 -76.45802586 1.66675912 -75.015625 -0.71875 C-56.94894525 -28.37042398 -22.61709564 -12.99006855 0 0 Z " fill="#2B0302" transform="translate(140.640625,31.03125)"/>
<path d="M0 0 C2.51877329 2.44880737 4.89017149 4.86021825 7.0625 7.625 C8.91114285 9.89107833 10.51306867 11.47575177 13 13 C13.99 13 14.98 13 16 13 C16.66 12.34 17.32 11.68 18 11 C20.53964656 17.71783592 20.33046504 23.95912223 20.3125 31.0625 C20.32861328 32.30966797 20.34472656 33.55683594 20.36132812 34.84179688 C20.36586635 43.56880923 19.98295232 53.03409537 16 61 C14.20581055 61.59423828 14.20581055 61.59423828 11.88671875 62.0703125 C11.05076172 62.24433594 10.21480469 62.41835937 9.35351562 62.59765625 C8.47373047 62.77167969 7.59394531 62.94570312 6.6875 63.125 C5.81931641 63.30675781 4.95113281 63.48851562 4.05664062 63.67578125 C0.2381744 64.4552993 -3.07566521 65 -7 65 C-6.34 67.31 -5.68 69.62 -5 72 C-11.09781001 72.22084624 -16.21642935 72.01167675 -22 70 C-20.515 72.475 -20.515 72.475 -19 75 C-26.94435694 74.96553424 -35.18401911 72.81598089 -41 67 C-41.07258946 64.81360547 -41.08373783 62.62499611 -41.0625 60.4375 C-41.05347656 59.23996094 -41.04445313 58.04242188 -41.03515625 56.80859375 C-41.02355469 55.88175781 -41.01195313 54.95492187 -41 54 C-41.90363281 54.04640625 -42.80726562 54.0928125 -43.73828125 54.140625 C-49.21375739 53.90455657 -53.0219127 50.85046876 -56.9375 47.1875 C-58.54991235 43.86782751 -59.26415031 40.69810432 -59 37 C-57.23535939 34.14006522 -56.00434303 32.50217151 -53 31 C-47.76332273 30.59717867 -44.44851046 31.16912971 -40 34 C-38.25 36 -38.25 36 -37 38 C-36.34 38.99 -35.68 39.98 -35 41 C-34.67 40.01 -34.34 39.02 -34 38 C-31.68191636 36.96514123 -29.34824702 35.9644586 -27 35 C-25.85185003 32.70370006 -25.69230191 30.92301914 -25.4375 28.375 C-25.35371094 27.55773437 -25.26992187 26.74046875 -25.18359375 25.8984375 C-25.09271484 24.95871094 -25.09271484 24.95871094 -25 24 C-23.783125 24.33 -22.56625 24.66 -21.3125 25 C-18.12789396 25.80322213 -15.3027157 26.20641973 -12 26 C-11.67 24.68 -11.34 23.36 -11 22 C-12.32 21.67 -13.64 21.34 -15 21 C-14.67 17.04 -14.34 13.08 -14 9 C-10 11 -10 11 -7 13 C-5.68 13 -4.36 13 -3 13 C-0.96834048 8.66579301 -0.47939368 4.71403788 0 0 Z " fill="#F88A67" transform="translate(120,42)"/>
<path d="M0 0 C6.24286036 3.79450268 12.3169516 7.79628472 18.32421875 11.953125 C19.04585205 12.4471582 19.76748535 12.94119141 20.51098633 13.45019531 C30.72682014 20.6608107 30.72682014 20.6608107 32.015625 26.96875 C31.86010802 34.39697263 30.75121582 40.23673124 27.38671875 46.890625 C22.90089596 46.890625 22.17235916 46.06931231 18.98046875 43.203125 C16.66998668 41.30037506 14.10039108 40.11823867 11.38671875 38.890625 C10.72671875 40.540625 10.06671875 42.190625 9.38671875 43.890625 C5.13352376 43.24547745 1.64548961 41.77894372 -2.23828125 39.953125 C-3.36492187 39.42847656 -4.4915625 38.90382812 -5.65234375 38.36328125 C-8.61328125 36.890625 -8.61328125 36.890625 -11.61328125 34.890625 C-11.52810731 31.9947112 -11.07183606 30.34146374 -8.98828125 28.29296875 C-7.71351757 27.24694291 -6.42061579 26.22257629 -5.109375 25.22265625 C-4.61566406 24.78308594 -4.12195313 24.34351562 -3.61328125 23.890625 C-3.61328125 23.230625 -3.61328125 22.570625 -3.61328125 21.890625 C-4.0721875 22.34953125 -4.53109375 22.8084375 -5.00390625 23.28125 C-6.26823185 24.5455756 -7.53526388 25.80719932 -8.8046875 27.06640625 C-10.1757661 28.44933002 -11.50009932 29.87879371 -12.80078125 31.328125 C-14.61328125 32.890625 -14.61328125 32.890625 -18.61328125 32.890625 C-18.44828125 32.08625 -18.28328125 31.281875 -18.11328125 30.453125 C-17.58136286 28.1621807 -17.58136286 28.1621807 -17.61328125 26.890625 C-19.59328125 27.550625 -21.57328125 28.210625 -23.61328125 28.890625 C-22.57418539 20.70774509 -19.43393376 16.6165227 -13.61328125 10.890625 C-15.59328125 11.220625 -17.57328125 11.550625 -19.61328125 11.890625 C-19.94328125 13.540625 -20.27328125 15.190625 -20.61328125 16.890625 C-22.55078125 17.453125 -22.55078125 17.453125 -24.61328125 17.890625 C-25.61328125 16.890625 -25.61328125 16.890625 -25.7109375 14.60546875 C-25.69933594 13.68894531 -25.68773437 12.77242187 -25.67578125 11.828125 C-25.66675781 10.90902344 -25.65773437 9.98992187 -25.6484375 9.04296875 C-25.63683594 8.33269531 -25.62523437 7.62242188 -25.61328125 6.890625 C-23.34366525 5.74232523 -21.07267347 4.59690522 -18.80078125 3.453125 C-18.15818359 3.12763672 -17.51558594 2.80214844 -16.85351562 2.46679688 C-11.08922544 -0.43028161 -6.29219333 -2.67112542 0 0 Z " fill="#F98B68" transform="translate(178.61328125,101.109375)"/>
<path d="M0 0 C0 1.98 0 3.96 0 6 C0.825 5.34 1.65 4.68 2.5 4 C6.34492481 1.38765874 9.45655064 1.68665866 14 2 C10.45778993 4.36147338 6.82010663 6.12125903 3 8 C3 11.3 3 14.6 3 18 C3.99 18 4.98 18 6 18 C6.2784375 16.824375 6.2784375 16.824375 6.5625 15.625 C8 13 8 13 11.625 11.6875 C12.73875 11.460625 13.8525 11.23375 15 11 C13.700625 12.423125 13.700625 12.423125 12.375 13.875 C7.02318625 20.15480045 2.36661709 26.56780691 2 35 C3.98 34.34 5.96 33.68 8 33 C8 33.66 8 34.32 8 35 C8.99 35.495 8.99 35.495 10 36 C5.25 39 5.25 39 3 39 C3 40.98 3 42.96 3 45 C-0.08117427 45.84145956 -3.16525621 46.67173062 -6.25 47.5 C-7.12269531 47.73847656 -7.99539062 47.97695312 -8.89453125 48.22265625 C-9.73886719 48.44824219 -10.58320313 48.67382812 -11.453125 48.90625 C-12.22817383 49.11572266 -13.00322266 49.32519531 -13.80175781 49.54101562 C-16 50 -16 50 -20 50 C-20.33209473 49.25016846 -20.66418945 48.50033691 -21.00634766 47.7277832 C-22.26922491 44.87765803 -23.53301106 42.02793793 -24.79736328 39.1784668 C-25.60126076 37.36602182 -26.40416122 35.55313472 -27.20703125 33.74023438 C-30.41345977 26.49835868 -30.41345977 26.49835868 -33.73730469 19.31005859 C-34.28547852 18.14941895 -34.83365234 16.9887793 -35.3984375 15.79296875 C-35.89778809 14.75035889 -36.39713867 13.70774902 -36.91162109 12.63354492 C-38 10 -38 10 -38 7 C-35.10555905 6.3267344 -32.20969987 5.66119596 -29.3125 5 C-28.08756836 4.71382813 -28.08756836 4.71382813 -26.83789062 4.421875 C-22.82760674 3.51266084 -19.14282748 2.72999902 -15 3 C-14.67 2.34 -14.34 1.68 -14 1 C-11.6015625 0.5859375 -11.6015625 0.5859375 -8.625 0.375 C-7.15933594 0.26285156 -7.15933594 0.26285156 -5.6640625 0.1484375 C-3.77831835 0.04336671 -1.88866907 0 0 0 Z " fill="#FEE2C6" transform="translate(151,100)"/>
<path d="M0 0 C2.50071292 3.07716554 4.10732171 6.16385915 5.69921875 9.7890625 C6.18583984 10.89507812 6.67246094 12.00109375 7.17382812 13.140625 C7.9230957 14.86539063 7.9230957 14.86539063 8.6875 16.625 C9.19861328 17.78257812 9.70972656 18.94015625 10.23632812 20.1328125 C14 28.73549107 14 28.73549107 14 31 C14.66 31.33 15.32 31.66 16 32 C15.55269531 32.3403125 15.10539063 32.680625 14.64453125 33.03125 C10.42017167 36.4179434 7.61103931 39.74736757 4.9453125 44.4609375 C4.63335937 44.96882813 4.32140625 45.47671875 4 46 C3.67 46 3.34 46 3 46 C2.56798077 40.89581531 2.14092032 35.79124765 1.71826172 30.6862793 C1.57408505 28.95309513 1.42860196 27.22001909 1.28173828 25.48706055 C1.06972292 22.98253891 0.86255695 20.47765382 0.65625 17.97265625 C0.59062866 17.20977798 0.52500732 16.44689972 0.45739746 15.66090393 C0.03244527 10.42463648 -0.05470219 5.25368959 0 0 Z " fill="#DA5F2D" transform="translate(117,119)"/>
<path d="M0 0 C4.2941372 1.21810769 7.10976996 2.58495824 10.375 5.625 C11.06335938 6.25664062 11.75171875 6.88828125 12.4609375 7.5390625 C12.96882813 8.02117187 13.47671875 8.50328125 14 9 C12.0338775 13.34185387 9.28764485 15.85617758 5 18 C2.0086393 18.43736501 -0.99074485 18.69907449 -4 19 C-1.69 21.31 0.62 23.62 3 26 C2.67 26.66 2.34 27.32 2 28 C-1.63 24.37 -5.26 20.74 -9 17 C-7.35848487 12.89621218 -5.61539709 9.46298399 -3.375 5.6875 C-2.74335938 4.61886719 -2.11171875 3.55023438 -1.4609375 2.44921875 C-0.97882813 1.64097656 -0.49671875 0.83273438 0 0 Z " fill="#2C0301" transform="translate(190,140)"/>
<path d="M0 0 C1.68816933 1.64488294 3.35353315 3.31337542 5 5 C7.16620544 6.29519995 7.16620544 6.29519995 9 7 C8.49396008 9.16874252 8.00016187 10.99967627 7 13 C2.66695924 12.35534798 -0.86672065 10.81074878 -4.8125 8.9375 C-5.97394531 8.38964844 -7.13539063 7.84179688 -8.33203125 7.27734375 C-9.65267578 6.64505859 -9.65267578 6.64505859 -11 6 C-8.98932585 1.9786517 -4.28943425 0 0 0 Z " fill="#FCF8F6" transform="translate(181,132)"/>
<path d="M0 0 C-0.53109375 0.56847656 -1.0621875 1.13695313 -1.609375 1.72265625 C-5.76024823 6.25983338 -9.2017446 10.52008317 -12 16 C-12.33 16 -12.66 16 -13 16 C-13 13.03 -13 10.06 -13 7 C-11.68 6.67 -10.36 6.34 -9 6 C-8.690625 5.195625 -8.38125 4.39125 -8.0625 3.5625 C-7 1 -7 1 -4.5 -0.375 C-2 -1 -2 -1 0 0 Z " fill="#FAF6F4" transform="translate(166,112)"/>
<path d="M0 0 C5.94 0.66 11.88 1.32 18 2 C18 2.66 18 3.32 18 4 C14.77692845 4.94482476 11.79191247 5.19523408 8.4375 5.25 C7.48746094 5.27578125 6.53742188 5.3015625 5.55859375 5.328125 C3 5 3 5 1.16015625 3.609375 C0 2 0 2 0 0 Z " fill="#310A09" transform="translate(98,112)"/>
<path d="M0 0 C0.33 0.66 0.66 1.32 1 2 C0.0625 4.625 0.0625 4.625 -1 7 C1.64 5.68 4.28 4.36 7 3 C6.34 4.65 5.68 6.3 5 8 C4.34 8 3.68 8 3 8 C2.67 8.99 2.34 9.98 2 11 C0.35 11.33 -1.3 11.66 -3 12 C-3.2954439 6.97745369 -2.98514628 4.10457614 0 0 Z " fill="#A1543A" transform="translate(156,123)"/>
<path d="M0 0 C0.94875 0.04125 1.8975 0.0825 2.875 0.125 C3.25718767 1.78114657 3.58895102 3.44957024 3.875 5.125 C2.875 6.125 2.875 6.125 -0.6875 6.1875 C-1.821875 6.166875 -2.95625 6.14625 -4.125 6.125 C-4.75 4.25 -4.75 4.25 -5.125 2.125 C-3.125 0.125 -3.125 0.125 0 0 Z " fill="#3E0F0A" transform="translate(134.125,61.875)"/>
<path d="M0 0 C0.99 0.33 1.98 0.66 3 1 C2.38125 1.0825 1.7625 1.165 1.125 1.25 C-1.15303678 1.77341441 -1.15303678 1.77341441 -1.875 3.8125 C-3.23312356 6.45329582 -4.85774488 7.84843119 -7.125 9.75 C-8.21167969 10.67039063 -8.21167969 10.67039063 -9.3203125 11.609375 C-9.87460938 12.06828125 -10.42890625 12.5271875 -11 13 C-11 9.39085289 -9.8275979 8.14499761 -7.5 5.5 C-5.20986811 3.20986811 -2.83909422 1.54298599 0 0 Z " fill="#8F3719" transform="translate(135,149)"/>
<path d="M0 0 C0.66 0.33 1.32 0.66 2 1 C1.06409496 2.1055189 0.12620142 3.20935453 -0.8125 4.3125 C-1.33457031 4.92738281 -1.85664063 5.54226562 -2.39453125 6.17578125 C-4 8 -4 8 -5.63671875 9.54296875 C-7.25492602 11.06935893 -7.25492602 11.06935893 -8 14 C-6.68 14.33 -5.36 14.66 -4 15 C-5.32 15.33 -6.64 15.66 -8 16 C-8.99 14.35 -9.98 12.7 -11 11 C-7.33333333 7.33333333 -3.66666667 3.66666667 0 0 Z " fill="#682B1F" transform="translate(175,122)"/>
<path d="M0 0 C0.66 0.33 1.32 0.66 2 1 C-1.80411834 4.91939465 -5.81576108 8.49102731 -10 12 C-10 9 -10 9 -8.3203125 6.9921875 C-7.59585938 6.29351562 -6.87140625 5.59484375 -6.125 4.875 C-5.40570313 4.17117187 -4.68640625 3.46734375 -3.9453125 2.7421875 C-2 1 -2 1 0 0 Z " fill="#994A37" transform="translate(174,114)"/>
<path d="M0 0 C2.375 0.25 2.375 0.25 5 1 C6 2.75 6 2.75 7 5 C8.62746694 6.70496537 10.28891311 8.37897032 12 10 C11.67 10.66 11.34 11.32 11 12 C9.16364422 10.19047409 7.33083792 8.37759362 5.5 6.5625 C4.97535156 6.04623047 4.45070312 5.52996094 3.91015625 4.99804688 C2.58775448 3.68423213 1.29164432 2.34406495 0 1 C0 0.67 0 0.34 0 0 Z " fill="#68220E" transform="translate(181,156)"/>
<path d="M0 0 C1.98 0.495 1.98 0.495 4 1 C3.67 2.65 3.34 4.3 3 6 C1.68 5.67 0.36 5.34 -1 5 C-0.67 3.35 -0.34 1.7 0 0 Z " fill="#360906" transform="translate(131,72)"/>
<path d="M0 0 C2.475 0.495 2.475 0.495 5 1 C5 2.32 5 3.64 5 5 C3.35 5 1.7 5 0 5 C0 3.35 0 1.7 0 0 Z " fill="#320704" transform="translate(103,73)"/>
<path d="M0 0 C0.66 0.33 1.32 0.66 2 1 C-3.14285714 7.57142857 -3.14285714 7.57142857 -7 9 C-5.44499019 5.18315774 -2.96404505 2.80804268 0 0 Z " fill="#9B5443" transform="translate(166,111)"/>
<path d="M0 0 C0.66 0.33 1.32 0.66 2 1 C0.02 3.31 -1.96 5.62 -4 8 C-4.33 7.01 -4.66 6.02 -5 5 C-3.35 3.35 -1.7 1.7 0 0 Z " fill="#A6533E" transform="translate(175,122)"/>
<path d="M0 0 C0.66 0.33 1.32 0.66 2 1 C-0.97 3.475 -0.97 3.475 -4 6 C-4.33 4.68 -4.66 3.36 -5 2 C-2.625 0.9375 -2.625 0.9375 0 0 Z " fill="#ECD8D3" transform="translate(164,111)"/>
</svg>
